<svg version="1.1" viewBox="0.0 0.0 960.0 720.0" fill="none" stroke="none" stroke-linecap="square" stroke-miterlimit="10" xmlns:xlink="http://www.w3.org/1999/xlink" xmlns="http://www.w3.org/2000/svg"><clipPath id="p.0"><path d="m0 0l960.0 0l0 720.0l-960.0 0l0 -720.0z" clip-rule="nonzero"/></clipPath><g clip-path="url(#p.0)"><path fill="#000000" fill-opacity="0.0" d="m0 0l960.0 0l0 720.0l-960.0 0z" fill-rule="evenodd"/><path fill="#000000" fill-opacity="0.0" d="m61.57349 208.65749l0 299.30707" fill-rule="evenodd"/><path stroke="#000000" stroke-width="2.0" stroke-linejoin="round" stroke-linecap="butt" d="m61.57349 208.65749l0 299.30707" fill-rule="evenodd"/><path fill="#000000" fill-opacity="0.0" d="m61.57349 209.05643l88.25197 0" fill-rule="evenodd"/><path stroke="#000000" stroke-width="2.0" stroke-linejoin="round" stroke-linecap="butt" d="m61.57349 209.05643l88.25197 0" fill-rule="evenodd"/><path fill="#000000" fill-opacity="0.0" d="m60.639107 507.46063l121.95275 0" fill-rule="evenodd"/><path stroke="#000000" stroke-width="2.0" stroke-linejoin="round" stroke-linecap="butt" d="m60.639107 507.46063l121.95275 0" fill-rule="evenodd"/><path fill="#000000" fill-opacity="0.0" d="m152.03018 135.89896l132.15747 0.31495667" fill-rule="evenodd"/><path stroke="#000000" stroke-width="2.0" stroke-linejoin="round" stroke-linecap="butt" d="m152.03018 135.89896l132.15747 0.31495667" fill-rule="evenodd"/><path fill="#000000" fill-opacity="0.0" d="m152.9658 284.64697l115.65355 0" fill-rule="evenodd"/><path stroke="#000000" stroke-width="2.0" stroke-linejoin="round" stroke-linecap="butt" d="m152.9658 284.64697l115.65355 0" fill-rule="evenodd"/><path fill="#000000" fill-opacity="0.0" d="m182.58661 432.49475l121.41733 0" fill-rule="evenodd"/><path stroke="#000000" stroke-width="2.0" stroke-linejoin="round" stroke-linecap="butt" d="m182.58661 432.49475l121.41733 0" fill-rule="evenodd"/><path fill="#000000" fill-opacity="0.0" d="m182.59448 581.5131l72.44095 0" fill-rule="evenodd"/><path stroke="#000000" stroke-width="2.0" stroke-linejoin="round" stroke-linecap="butt" d="m182.59448 581.5131l72.44095 0" fill-rule="evenodd"/><path fill="#000000" fill-opacity="0.0" d="m372.01706 432.49475l460.126 0" fill-rule="evenodd"/><path stroke="#674ea7" stroke-width="8.0" stroke-linejoin="round" stroke-linecap="butt" d="m372.01706 432.49475l460.126 0" fill-rule="evenodd"/><path fill="#000000" fill-opacity="0.0" d="m372.01706 507.46063l460.126 0" fill-rule="evenodd"/><path stroke="#999999" stroke-width="8.0" stroke-linejoin="round" stroke-linecap="butt" d="m372.01706 507.46063l460.126 0" fill-rule="evenodd"/><path fill="#000000" fill-opacity="0.0" d="m372.01706 581.5131l460.126 0" fill-rule="evenodd"/><path stroke="#b45f06" stroke-width="8.0" stroke-linejoin="round" stroke-linecap="butt" d="m372.01706 581.5131l460.126 0" fill-rule="evenodd"/><path fill="#000000" fill-opacity="0.0" d="m372.01706 358.69946l460.126 0" fill-rule="evenodd"/><path stroke="#999999" stroke-width="8.0" stroke-linejoin="round" stroke-linecap="butt" d="m372.01706 358.69946l460.126 0" fill-rule="evenodd"/><path fill="#000000" fill-opacity="0.0" d="m372.01706 284.64697l460.126 0" fill-rule="evenodd"/><path stroke="#999999" stroke-width="8.0" stroke-linejoin="round" stroke-linecap="butt" d="m372.01706 284.64697l460.126 0" fill-rule="evenodd"/><path fill="#000000" fill-opacity="0.0" d="m372.01706 135.88583l460.126 0" fill-rule="evenodd"/><path stroke="#3c78d8" stroke-width="8.0" stroke-linejoin="round" stroke-linecap="butt" d="m372.01706 135.88583l460.126 0" fill-rule="evenodd"/><path fill="#000000" fill-opacity="0.0" d="m182.78871 432.1614l0 149.82675" fill-rule="evenodd"/><path stroke="#000000" stroke-width="2.0" stroke-linejoin="round" stroke-linecap="butt" d="m182.78871 432.1614l0 149.82675" fill-rule="evenodd"/><path fill="#000000" fill-opacity="0.0" d="m372.01706 209.05643l460.126 0" fill-rule="evenodd"/><path stroke="#999999" stroke-width="8.0" stroke-linejoin="round" stroke-linecap="butt" d="m372.01706 209.05643l460.126 0" fill-rule="evenodd"/><path fill="#000000" fill-opacity="0.0" d="m152.45801 135.88583l0 149.22833" fill-rule="evenodd"/><path stroke="#000000" stroke-width="2.0" stroke-linejoin="round" stroke-linecap="butt" d="m152.45801 135.88583l0 149.22833" fill-rule="evenodd"/><path fill="#f3f3f3" d="m51.951443 349.25067l19.244099 0l0 18.015747l-19.244099 0z" fill-rule="evenodd"/><path stroke="#999999" stroke-width="1.0" stroke-linejoin="round" stroke-linecap="butt" d="m51.951443 349.25067l19.244099 0l0 18.015747l-19.244099 0z" fill-rule="evenodd"/><path fill="#000000" d="m57.80779 363.05853l0 -9.546875l4.234375 0q1.265625 0 1.921875 0.265625q0.6718788 0.25 1.0625038 0.90625q0.40625 0.65625 0.40625 1.4375q0 1.015625 -0.65625 1.71875q-0.65625 0.6875 -2.0312538 0.875q0.5 0.25 0.765625 0.484375q0.5468788 0.5 1.0468788 1.265625l1.65625 2.59375l-1.578125 0l-1.2656288 -1.984375q-0.5625 -0.859375 -0.921875 -1.3125q-0.34375 -0.453125 -0.640625 -0.640625q-0.28125 -0.1875 -0.5625 -0.25q-0.21875 -0.046875 -0.703125 -0.046875l-1.46875 0l0 4.234375l-1.265625 0zm1.265625 -5.328125l2.71875 0q0.859375 0 1.34375 -0.171875q0.484375 -0.1875 0.734375 -0.578125q0.2656288 -0.390625 0.2656288 -0.859375q0 -0.671875 -0.5000038 -1.109375q-0.484375 -0.4375 -1.546875 -0.4375l-3.015625 0l0 3.15625z" fill-rule="nonzero"/><path fill="#f3f3f3" d="m142.83595 200.04855l19.244095 0l0 18.015747l-19.244095 0z" fill-rule="evenodd"/><path stroke="#999999" stroke-width="1.0" stroke-linejoin="round" stroke-linecap="butt" d="m142.83595 200.04855l19.244095 0l0 18.015747l-19.244095 0z" fill-rule="evenodd"/><path fill="#000000" d="m144.95482 213.85643l0 -9.546875l1.296875 0l5.015625 7.5l0 -7.5l1.203125 0l0 9.546875l-1.296875 0l-5.015625 -7.5l0 7.5l-1.203125 0zm13.578278 0l-1.171875 0l0 -7.46875q-0.421875 0.40625 -1.109375 0.8125q-0.6875 0.40625 -1.234375 0.609375l0 -1.140625q0.984375 -0.453125 1.71875 -1.109375q0.734375 -0.671875 1.03125 -1.28125l0.765625 0l0 9.578125z" fill-rule="nonzero"/><path fill="#f3f3f3" d="m173.16667 497.99606l19.244095 0l0 18.015778l-19.244095 0z" fill-rule="evenodd"/><path stroke="#999999" stroke-width="1.0" stroke-linejoin="round" stroke-linecap="butt" d="m173.16667 497.99606l19.244095 0l0 18.015778l-19.244095 0z" fill-rule="evenodd"/><path fill="#000000" d="m175.28552 511.80392l0 -9.546875l1.296875 0l5.015625 7.5l0 -7.5l1.203125 0l0 9.546875l-1.296875 0l-5.015625 -7.5l0 7.5l-1.203125 0zm15.312653 -1.125l0 1.125l-6.296875 0q-0.015625 -0.421875 0.140625 -0.8125q0.234375 -0.640625 0.765625 -1.265625q0.53125 -0.625 1.53125 -1.453125q1.5625 -1.265625 2.109375 -2.015625q0.546875 -0.75 0.546875 -1.40625q0 -0.703125 -0.5 -1.171875q-0.5 -0.484375 -1.296875 -0.484375q-0.859375 0 -1.375 0.515625q-0.5 0.5 -0.5 1.390625l-1.203125 -0.109375q0.125 -1.359375 0.921875 -2.0625q0.8125 -0.703125 2.171875 -0.703125q1.375 0 2.171875 0.765625q0.8125 0.75 0.8125 1.875q0 0.578125 -0.234375 1.140625q-0.234375 0.546875 -0.78125 1.15625q-0.546875 0.609375 -1.8125 1.671875q-1.046875 0.890625 -1.359375 1.21875q-0.296875 0.3125 -0.484375 0.625l4.671875 0z" fill-rule="nonzero"/><path fill="#f3f3f3" d="m276.02493 127.04855l19.24411 0l0 18.015747l-19.24411 0z" fill-rule="evenodd"/><path stroke="#999999" stroke-width="1.0" stroke-linejoin="round" stroke-linecap="butt" d="m276.02493 127.04855l19.24411 0l0 18.015747l-19.24411 0z" fill-rule="evenodd"/><path fill="#000000" d="m278.08963 137.79393l1.203125 -0.109375q0.078125 0.71875 0.390625 1.1875q0.3125 0.453125 0.953125 0.734375q0.65625 0.28125 1.46875 0.28125q0.71875 0 1.265625 -0.21875q0.5625 -0.21875 0.828125 -0.578125q0.265625 -0.375 0.265625 -0.828125q0 -0.453125 -0.265625 -0.78125q-0.25 -0.328125 -0.84375 -0.5625q-0.390625 -0.15625 -1.703125 -0.46875q-1.3125 -0.3125 -1.84375 -0.59375q-0.671875 -0.359375 -1.015625 -0.890625q-0.328125 -0.53125 -0.328125 -1.1875q0 -0.71875 0.40625 -1.34375q0.40625 -0.625 1.1875 -0.953125q0.796875 -0.328125 1.765625 -0.328125q1.046875 0 1.859375 0.34375q0.8125 0.34375 1.25 1.015625q0.4375 0.65625 0.46875 1.484375l-1.203125 0.09375q-0.109375 -0.90625 -0.671875 -1.359375q-0.5625 -0.46875 -1.65625 -0.46875q-1.140625 0 -1.671875 0.421875q-0.515625 0.421875 -0.515625 1.015625q0 0.515625 0.359375 0.84375q0.375 0.328125 1.90625 0.6875q1.546875 0.34375 2.109375 0.59375q0.84375 0.390625 1.234375 0.984375q0.390625 0.578125 0.390625 1.359375q0 0.75 -0.4375 1.4375q-0.421875 0.671875 -1.25 1.046875q-0.8125 0.359375 -1.828125 0.359375q-1.296875 0 -2.171875 -0.375q-0.875 -0.375 -1.375 -1.125q-0.5 -0.765625 -0.53125 -1.71875zm13.26474 3.0625l-1.171875 0l0 -7.46875q-0.421875 0.40625 -1.109375 0.8125q-0.6875 0.40625 -1.234375 0.609375l0 -1.140625q0.984375 -0.453125 1.71875 -1.109375q0.734375 -0.671875 1.03125 -1.28125l0.765625 0l0 9.578125z" fill-rule="nonzero"/><path fill="#f3f3f3" d="m260.7362 275.34647l19.24411 0l0 18.015747l-19.24411 0z" fill-rule="evenodd"/><path stroke="#999999" stroke-width="1.0" stroke-linejoin="round" stroke-linecap="butt" d="m260.7362 275.34647l19.24411 0l0 18.015747l-19.24411 0z" fill-rule="evenodd"/><path fill="#000000" d="m262.8009 286.09183l1.203125 -0.109375q0.078125 0.71875 0.390625 1.1875q0.3125 0.453125 0.953125 0.734375q0.65625 0.28125 1.46875 0.28125q0.71875 0 1.265625 -0.21875q0.5625 -0.21875 0.828125 -0.578125q0.265625 -0.375 0.265625 -0.828125q0 -0.453125 -0.265625 -0.78125q-0.25 -0.328125 -0.84375 -0.5625q-0.390625 -0.15625 -1.703125 -0.46875q-1.3125 -0.3125 -1.84375 -0.59375q-0.671875 -0.359375 -1.015625 -0.890625q-0.328125 -0.53125 -0.328125 -1.1875q0 -0.71875 0.40625 -1.34375q0.40625 -0.625 1.1875 -0.953125q0.796875 -0.328125 1.765625 -0.328125q1.046875 0 1.859375 0.34375q0.8125 0.34375 1.25 1.015625q0.4375 0.65625 0.46875 1.484375l-1.203125 0.09375q-0.109375 -0.90625 -0.671875 -1.359375q-0.5625 -0.46875 -1.65625 -0.46875q-1.140625 0 -1.671875 0.421875q-0.515625 0.421875 -0.515625 1.015625q0 0.515625 0.359375 0.84375q0.375 0.328125 1.90625 0.6875q1.546875 0.34375 2.109375 0.59375q0.84375 0.390625 1.234375 0.984375q0.390625 0.578125 0.390625 1.359375q0 0.75 -0.4375 1.4375q-0.421875 0.671875 -1.25 1.046875q-0.8125 0.359375 -1.828125 0.359375q-1.296875 0 -2.171875 -0.375q-0.875 -0.375 -1.375 -1.125q-0.5 -0.765625 -0.53125 -1.71875zm14.999115 1.9375l0 1.125l-6.296875 0q-0.015625 -0.421875 0.140625 -0.8125q0.234375 -0.640625 0.765625 -1.265625q0.53125 -0.625 1.53125 -1.453125q1.5625 -1.265625 2.109375 -2.015625q0.546875 -0.75 0.546875 -1.40625q0 -0.703125 -0.5 -1.171875q-0.5 -0.484375 -1.296875 -0.484375q-0.859375 0 -1.375 0.515625q-0.5 0.5 -0.5 1.390625l-1.203125 -0.109375q0.125 -1.359375 0.921875 -2.0625q0.8125 -0.703125 2.171875 -0.703125q1.375 0 2.171875 0.765625q0.8125 0.75 0.8125 1.875q0 0.578125 -0.234375 1.140625q-0.234375 0.546875 -0.78125 1.15625q-0.546875 0.609375 -1.8125 1.671875q-1.046875 0.890625 -1.359375 1.21875q-0.296875 0.3125 -0.484375 0.625l4.671875 0z" fill-rule="nonzero"/><path fill="#f3f3f3" d="m304.00394 423.48688l19.24408 0l0 18.015747l-19.24408 0z" fill-rule="evenodd"/><path stroke="#999999" stroke-width="1.0" stroke-linejoin="round" stroke-linecap="butt" d="m304.00394 423.48688l19.24408 0l0 18.015747l-19.24408 0z" fill-rule="evenodd"/><path fill="#000000" d="m306.06863 434.23224l1.203125 -0.109375q0.078125 0.71875 0.390625 1.1875q0.3125 0.453125 0.953125 0.734375q0.65625 0.28125 1.46875 0.28125q0.71875 0 1.265625 -0.21875q0.5625 -0.21875 0.828125 -0.578125q0.265625 -0.375 0.265625 -0.828125q0 -0.453125 -0.265625 -0.78125q-0.25 -0.328125 -0.84375 -0.5625q-0.390625 -0.15625 -1.703125 -0.46875q-1.3125 -0.3125 -1.84375 -0.59375q-0.671875 -0.359375 -1.015625 -0.890625q-0.328125 -0.53125 -0.328125 -1.1875q0 -0.71875 0.40625 -1.34375q0.40625 -0.625 1.1875 -0.953125q0.796875 -0.328125 1.765625 -0.328125q1.046875 0 1.859375 0.34375q0.8125 0.34375 1.25 1.015625q0.4375 0.65625 0.46875 1.484375l-1.203125 0.09375q-0.109375 -0.90625 -0.671875 -1.359375q-0.5625 -0.46875 -1.65625 -0.46875q-1.140625 0 -1.671875 0.421875q-0.515625 0.421875 -0.515625 1.015625q0 0.515625 0.359375 0.84375q0.375 0.328125 1.90625 0.6875q1.546875 0.34375 2.109375 0.59375q0.84375 0.390625 1.234375 0.984375q0.390625 0.578125 0.390625 1.359375q0 0.75 -0.4375 1.4375q-0.421875 0.671875 -1.25 1.046875q-0.8125 0.359375 -1.828125 0.359375q-1.296875 0 -2.171875 -0.375q-0.875 -0.375 -1.375 -1.125q-0.5 -0.765625 -0.53125 -1.71875zm8.85849 0.546875l1.171875 -0.15625q0.203125 1.0 0.6875 1.4375q0.484375 0.4375 1.171875 0.4375q0.828125 0 1.390625 -0.578125q0.578125 -0.578125 0.578125 -1.421875q0 -0.796875 -0.53125 -1.3125q-0.515625 -0.53125 -1.328125 -0.53125q-0.34375 0 -0.828125 0.125l0.125 -1.03125q0.125 0.015625 0.1875 0.015625q0.75 0 1.34375 -0.390625q0.609375 -0.390625 0.609375 -1.203125q0 -0.640625 -0.4375 -1.0625q-0.4375 -0.421875 -1.125 -0.421875q-0.6875 0 -1.140625 0.4375q-0.453125 0.421875 -0.59375 1.28125l-1.171875 -0.21875q0.21875 -1.171875 0.984375 -1.8125q0.765625 -0.65625 1.890625 -0.65625q0.78125 0 1.4375 0.34375q0.65625 0.328125 1.0 0.90625q0.359375 0.578125 0.359375 1.234375q0 0.609375 -0.34375 1.125q-0.328125 0.5 -0.96875 0.796875q0.84375 0.203125 1.3125 0.828125q0.46875 0.609375 0.46875 1.53125q0 1.25 -0.921875 2.125q-0.90625 0.859375 -2.296875 0.859375q-1.25 0 -2.09375 -0.75q-0.828125 -0.75 -0.9375 -1.9375z" fill-rule="nonzero"/><path fill="#f3f3f3" d="m246.11154 571.626l19.24411 0l0 18.015747l-19.24411 0z" fill-rule="evenodd"/><path stroke="#999999" stroke-width="1.0" stroke-linejoin="round" stroke-linecap="butt" d="m246.11154 571.626l19.24411 0l0 18.015747l-19.24411 0z" fill-rule="evenodd"/><path fill="#000000" d="m248.17622 582.37134l1.203125 -0.109375q0.078125 0.71875 0.390625 1.1875q0.3125 0.453125 0.953125 0.734375q0.65625 0.28125 1.46875 0.28125q0.71875 0 1.265625 -0.21875q0.5625 -0.21875 0.828125 -0.578125q0.265625 -0.375 0.265625 -0.828125q0 -0.453125 -0.265625 -0.78125q-0.25 -0.328125 -0.84375 -0.5625q-0.390625 -0.15625 -1.703125 -0.46875q-1.3125 -0.3125 -1.84375 -0.59375q-0.671875 -0.359375 -1.015625 -0.890625q-0.328125 -0.53125 -0.328125 -1.1875q0 -0.71875 0.40625 -1.34375q0.40625 -0.625 1.1875 -0.953125q0.796875 -0.328125 1.765625 -0.328125q1.046875 0 1.859375 0.34375q0.8125 0.34375 1.25 1.015625q0.4375 0.65625 0.46875 1.484375l-1.203125 0.09375q-0.109375 -0.90625 -0.671875 -1.359375q-0.5625 -0.46875 -1.65625 -0.46875q-1.140625 0 -1.671875 0.421875q-0.515625 0.421875 -0.515625 1.015625q0 0.515625 0.359375 0.84375q0.375 0.328125 1.90625 0.6875q1.546875 0.34375 2.109375 0.59375q0.84375 0.390625 1.234375 0.984375q0.390625 0.578125 0.390625 1.359375q0 0.75 -0.4375 1.4375q-0.421875 0.671875 -1.25 1.046875q-0.8125 0.359375 -1.828125 0.359375q-1.296875 0 -2.171875 -0.375q-0.875 -0.375 -1.375 -1.125q-0.5 -0.765625 -0.53125 -1.71875zm12.608505 3.0625l0 -2.28125l-4.140625 0l0 -1.078125l4.34375 -6.1875l0.96875 0l0 6.1875l1.28125 0l0 1.078125l-1.28125 0l0 2.28125l-1.171875 0zm0 -3.359375l0 -4.296875l-2.984375 4.296875l2.984375 0z" fill-rule="nonzero"/><path fill="#000000" fill-opacity="0.0" d="m379.3058 127.04855l59.496063 0" fill-rule="evenodd"/><path stroke="#3c78d8" stroke-width="2.0" stroke-linejoin="round" stroke-linecap="butt" d="m379.3058 127.04855l59.496063 0" fill-rule="evenodd"/><path fill="#000000" fill-opacity="0.0" d="m509.8517 127.04855l59.496063 0" fill-rule="evenodd"/><path stroke="#3c78d8" stroke-width="2.0" stroke-linejoin="round" stroke-linecap="butt" d="m509.8517 127.04855l59.496063 0" fill-rule="evenodd"/><path fill="#000000" fill-opacity="0.0" d="m572.33203 127.04855l59.496033 0" fill-rule="evenodd"/><path stroke="#3c78d8" stroke-width="2.0" stroke-linejoin="round" stroke-linecap="butt" d="m572.33203 127.04855l59.496033 0" fill-rule="evenodd"/><path fill="#000000" fill-opacity="0.0" d="m444.55774 127.04908l59.496063 0" fill-rule="evenodd"/><path stroke="#3c78d8" stroke-width="2.0" stroke-linejoin="round" stroke-linecap="butt" d="m444.55774 127.04908l59.496063 0" fill-rule="evenodd"/><path fill="#000000" fill-opacity="0.0" d="m634.69684 127.04855l59.496094 0" fill-rule="evenodd"/><path stroke="#3c78d8" stroke-width="2.0" stroke-linejoin="round" stroke-linecap="butt" d="m634.69684 127.04855l59.496094 0" fill-rule="evenodd"/><path fill="#000000" fill-opacity="0.0" d="m696.15094 127.04855l59.496033 0" fill-rule="evenodd"/><path stroke="#3c78d8" stroke-width="2.0" stroke-linejoin="round" stroke-linecap="butt" d="m696.15094 127.04855l59.496033 0" fill-rule="evenodd"/><path fill="#000000" fill-opacity="0.0" d="m762.1483 127.04855l59.496033 0" fill-rule="evenodd"/><path stroke="#3c78d8" stroke-width="2.0" stroke-linejoin="round" stroke-linecap="butt" d="m762.1483 127.04855l59.496033 0" fill-rule="evenodd"/><path fill="#000000" fill-opacity="0.0" d="m366.6706 123.208664l59.496063 0" fill-rule="evenodd"/><path stroke="#3c78d8" stroke-width="2.0" stroke-linejoin="round" stroke-linecap="butt" d="m366.6706 123.208664l59.496063 0" fill-rule="evenodd"/><path fill="#000000" fill-opacity="0.0" d="m429.48688 122.68372l59.496063 0" fill-rule="evenodd"/><path stroke="#3c78d8" stroke-width="2.0" stroke-linejoin="round" stroke-linecap="butt" d="m429.48688 122.68372l59.496063 0" fill-rule="evenodd"/><path fill="#000000" fill-opacity="0.0" d="m492.3058 123.22966l59.496033 0" fill-rule="evenodd"/><path stroke="#3c78d8" stroke-width="2.0" stroke-linejoin="round" stroke-linecap="butt" d="m492.3058 123.22966l59.496033 0" fill-rule="evenodd"/><path fill="#000000" fill-opacity="0.0" d="m558.7598 122.867455l59.496094 0" fill-rule="evenodd"/><path stroke="#3c78d8" stroke-width="2.0" stroke-linejoin="round" stroke-linecap="butt" d="m558.7598 122.867455l59.496094 0" fill-rule="evenodd"/><path fill="#000000" fill-opacity="0.0" d="m622.03284 122.502625l59.496033 0" fill-rule="evenodd"/><path stroke="#3c78d8" stroke-width="2.0" stroke-linejoin="round" stroke-linecap="butt" d="m622.03284 122.502625l59.496033 0" fill-rule="evenodd"/><path fill="#000000" fill-opacity="0.0" d="m748.28217 122.591866l59.496033 0" fill-rule="evenodd"/><path stroke="#999999" stroke-width="2.0" stroke-linejoin="round" stroke-linecap="butt" d="m748.28217 122.591866l59.496033 0" fill-rule="evenodd"/><path fill="#000000" fill-opacity="0.0" d="m683.82806 123.14042l59.496094 0" fill-rule="evenodd"/><path stroke="#3c78d8" stroke-width="2.0" stroke-linejoin="round" stroke-linecap="butt" d="m683.82806 123.14042l59.496094 0" fill-rule="evenodd"/><path fill="#000000" fill-opacity="0.0" d="m369.9908 117.94095l59.496063 0" fill-rule="evenodd"/><path stroke="#3c78d8" stroke-width="2.0" stroke-linejoin="round" stroke-linecap="butt" d="m369.9908 117.94095l59.496063 0" fill-rule="evenodd"/><path fill="#000000" fill-opacity="0.0" d="m432.80972 117.57612l59.496063 0" fill-rule="evenodd"/><path stroke="#3c78d8" stroke-width="2.0" stroke-linejoin="round" stroke-linecap="butt" d="m432.80972 117.57612l59.496063 0" fill-rule="evenodd"/><path fill="#000000" fill-opacity="0.0" d="m499.2638 117.66798l59.496033 0" fill-rule="evenodd"/><path stroke="#3c78d8" stroke-width="2.0" stroke-linejoin="round" stroke-linecap="butt" d="m499.2638 117.66798l59.496033 0" fill-rule="evenodd"/><path fill="#000000" fill-opacity="0.0" d="m569.3478 117.30577l59.496033 0" fill-rule="evenodd"/><path stroke="#999999" stroke-width="2.0" stroke-linejoin="round" stroke-linecap="butt" d="m569.3478 117.30577l59.496033 0" fill-rule="evenodd"/><path fill="#000000" fill-opacity="0.0" d="m634.69684 118.44095l59.496094 0" fill-rule="evenodd"/><path stroke="#3c78d8" stroke-width="2.0" stroke-linejoin="round" stroke-linecap="butt" d="m634.69684 118.44095l59.496094 0" fill-rule="evenodd"/><path fill="#000000" fill-opacity="0.0" d="m696.15094 118.25853l59.496033 0" fill-rule="evenodd"/><path stroke="#3c78d8" stroke-width="2.0" stroke-linejoin="round" stroke-linecap="butt" d="m696.15094 118.25853l59.496033 0" fill-rule="evenodd"/><path fill="#000000" fill-opacity="0.0" d="m762.1483 118.13386l59.496033 0" fill-rule="evenodd"/><path stroke="#3c78d8" stroke-width="2.0" stroke-linejoin="round" stroke-linecap="butt" d="m762.1483 118.13386l59.496033 0" fill-rule="evenodd"/><path fill="#f3f3f3" d="m863.1982 126.60761l44.850403 0l0 18.01574l-44.850403 0z" fill-rule="evenodd"/><path stroke="#999999" stroke-width="1.0" stroke-linejoin="round" stroke-linecap="butt" d="m863.1982 126.60761l44.850403 0l0 18.01574l-44.850403 0z" fill-rule="evenodd"/><path fill="#3c78d8" d="m872.1417 132.7736l-1.28125 0.09375q-0.171875 -0.75 -0.484375 -1.09375q-0.53125 -0.546875 -1.296875 -0.546875q-0.609375 0 -1.078125 0.34375q-0.609375 0.4375 -0.96875 1.296875q-0.34375 0.84375 -0.359375 2.421875q0.46875 -0.71875 1.140625 -1.0625q0.671875 -0.34375 1.40625 -0.34375q1.296875 0 2.203125 0.953125q0.90625 0.953125 0.90625 2.453125q0 0.984375 -0.4375 1.84375q-0.421875 0.84375 -1.171875 1.296875q-0.734375 0.4375 -1.6875 0.4375q-1.609375 0 -2.625 -1.171875q-1.015625 -1.1875 -1.015625 -3.90625q0 -3.046875 1.125 -4.421875q0.984375 -1.203125 2.640625 -1.203125q1.234375 0 2.03125 0.703125q0.796875 0.6875 0.953125 1.90625zm-5.265625 4.515625q0 0.671875 0.28125 1.28125q0.28125 0.609375 0.78125 0.9375q0.515625 0.3125 1.078125 0.3125q0.8125 0 1.390625 -0.65625q0.59375 -0.671875 0.59375 -1.796875q0 -1.09375 -0.578125 -1.71875q-0.578125 -0.625 -1.453125 -0.625q-0.875 0 -1.484375 0.625q-0.609375 0.625 -0.609375 1.640625zm6.729248 0.65625l1.34375 -0.109375q0.15625 0.984375 0.703125 1.484375q0.546875 0.5 1.328125 0.5q0.921875 0 1.5625 -0.703125q0.65625 -0.703125 0.65625 -1.859375q0 -1.109375 -0.625 -1.734375q-0.625 -0.640625 -1.625 -0.640625q-0.625 0 -1.125 0.28125q-0.5 0.28125 -0.78125 0.734375l-1.203125 -0.15625l1.015625 -5.390625l5.21875 0l0 1.21875l-4.1875 0l-0.578125 2.828125q0.953125 -0.65625 1.984375 -0.65625q1.375 0 2.3125 0.953125q0.953125 0.953125 0.953125 2.4375q0 1.4375 -0.828125 2.46875q-1.015625 1.265625 -2.75 1.265625q-1.4375 0 -2.34375 -0.796875q-0.90625 -0.796875 -1.03125 -2.125zm8.869812 2.75l0 -1.46875l1.46875 0l0 1.46875l-1.46875 0zm8.1970215 0l-1.28125 0l0 -8.203125q-0.46875 0.4375 -1.21875 0.890625q-0.75 0.4375 -1.359375 0.65625l0 -1.25q1.078125 -0.5 1.890625 -1.21875q0.8125 -0.734375 1.140625 -1.40625l0.828125 0l0 10.53125zm3.557312 -7.96875q0 -1.125 0.5625 -1.90625q0.5625 -0.796875 1.640625 -0.796875q0.984375 0 1.625 0.703125q0.65625 0.703125 0.65625 2.078125q0 1.328125 -0.65625 2.046875q-0.65625 0.71875 -1.625 0.71875q-0.9375 0 -1.578125 -0.703125q-0.625 -0.71875 -0.625 -2.140625zm2.234375 -1.8125q-0.484375 0 -0.8125 0.421875q-0.3125 0.40625 -0.3125 1.515625q0 1.015625 0.328125 1.421875q0.328125 0.40625 0.796875 0.40625q0.484375 0 0.796875 -0.40625q0.328125 -0.421875 0.328125 -1.515625q0 -1.015625 -0.328125 -1.421875q-0.3125 -0.421875 -0.796875 -0.421875zm0 10.171875l5.75 -11.0625l1.046875 0l-5.71875 11.0625l-1.078125 0zm4.546875 -2.859375q0 -1.125 0.5625 -1.90625q0.5625 -0.78125 1.640625 -0.78125q0.984375 0 1.625 0.703125q0.65625 0.703125 0.65625 2.0625q0 1.34375 -0.65625 2.0625q-0.640625 0.71875 -1.609375 0.71875q-0.953125 0 -1.59375 -0.703125q-0.625 -0.71875 -0.625 -2.15625zm2.25 -1.796875q-0.5 0 -0.8125 0.421875q-0.3125 0.40625 -0.3125 1.515625q0 1.0 0.3125 1.421875q0.328125 0.40625 0.796875 0.40625q0.5 0 0.8125 -0.40625q0.3125 -0.421875 0.3125 -1.53125q0 -1.015625 -0.328125 -1.421875q-0.3125 -0.40625 -0.78125 -0.40625z" fill-rule="nonzero"/><path fill="#f3f3f3" d="m863.1982 200.04855l44.850403 0l0 18.015747l-44.850403 0z" fill-rule="evenodd"/><path stroke="#999999" stroke-width="1.0" stroke-linejoin="round" stroke-linecap="butt" d="m863.1982 200.04855l44.850403 0l0 18.015747l-44.850403 0z" fill-rule="evenodd"/><path fill="#999999" d="m869.5298 208.96455q0 -1.859375 0.375 -2.984375q0.390625 -1.140625 1.140625 -1.75q0.765625 -0.625 1.90625 -0.625q0.84375 0 1.46875 0.34375q0.640625 0.328125 1.0625 0.96875q0.421875 0.640625 0.65625 1.5625q0.234375 0.921875 0.234375 2.484375q0 1.84375 -0.390625 2.984375q-0.375 1.125 -1.125 1.75q-0.75 0.609375 -1.90625 0.609375q-1.515625 0 -2.390625 -1.078125q-1.03125 -1.3125 -1.03125 -4.265625zm1.328125 0q0 2.578125 0.59375 3.4375q0.609375 0.859375 1.5 0.859375q0.890625 0 1.484375 -0.859375q0.609375 -0.859375 0.609375 -3.4375q0 -2.59375 -0.609375 -3.4375q-0.59375 -0.859375 -1.5 -0.859375q-0.890625 0 -1.421875 0.75q-0.65625 0.96875 -0.65625 3.546875zm7.541687 5.171875l0 -1.46875l1.46875 0l0 1.46875l-1.46875 0zm8.1970215 0l-1.28125 0l0 -8.203125q-0.46875 0.4375 -1.21875 0.890625q-0.75 0.4375 -1.359375 0.65625l0 -1.25q1.078125 -0.5 1.890625 -1.21875q0.8125 -0.734375 1.140625 -1.40625l0.828125 0l0 10.53125zm3.557312 -7.96875q0 -1.125 0.5625 -1.90625q0.5625 -0.796875 1.640625 -0.796875q0.984375 0 1.625 0.703125q0.65625 0.703125 0.65625 2.078125q0 1.328125 -0.65625 2.046875q-0.65625 0.71875 -1.625 0.71875q-0.9375 0 -1.578125 -0.703125q-0.625 -0.71875 -0.625 -2.140625zm2.234375 -1.8125q-0.484375 0 -0.8125 0.421875q-0.3125 0.40625 -0.3125 1.515625q0 1.015625 0.328125 1.421875q0.328125 0.40625 0.796875 0.40625q0.484375 0 0.796875 -0.40625q0.328125 -0.421875 0.328125 -1.515625q0 -1.015625 -0.328125 -1.421875q-0.3125 -0.421875 -0.796875 -0.421875zm0 10.171875l5.75 -11.0625l1.046875 0l-5.71875 11.0625l-1.078125 0zm4.546875 -2.859375q0 -1.125 0.5625 -1.90625q0.5625 -0.78125 1.640625 -0.78125q0.984375 0 1.625 0.703125q0.65625 0.703125 0.65625 2.0625q0 1.34375 -0.65625 2.0625q-0.640625 0.71875 -1.609375 0.71875q-0.953125 0 -1.59375 -0.703125q-0.625 -0.71875 -0.625 -2.15625zm2.25 -1.796875q-0.5 0 -0.8125 0.421875q-0.3125 0.40625 -0.3125 1.515625q0 1.0 0.3125 1.421875q0.328125 0.40625 0.796875 0.40625q0.5 0 0.8125 -0.40625q0.3125 -0.421875 0.3125 -1.53125q0 -1.015625 -0.328125 -1.421875q-0.3125 -0.40625 -0.78125 -0.40625z" fill-rule="nonzero"/><path fill="#f3f3f3" d="m863.1982 275.6391l44.850403 0l0 18.015747l-44.850403 0z" fill-rule="evenodd"/><path stroke="#999999" stroke-width="1.0" stroke-linejoin="round" stroke-linecap="butt" d="m863.1982 275.6391l44.850403 0l0 18.015747l-44.850403 0z" fill-rule="evenodd"/><path fill="#999999" d="m865.4542 284.5551q0 -1.859375 0.375 -2.984375q0.390625 -1.140625 1.140625 -1.75q0.765625 -0.625 1.90625 -0.625q0.84375 0 1.46875 0.34375q0.640625 0.328125 1.0625 0.96875q0.421875 0.640625 0.65625 1.5625q0.234375 0.921875 0.234375 2.484375q0 1.84375 -0.390625 2.984375q-0.375 1.125 -1.125 1.75q-0.75 0.609375 -1.90625 0.609375q-1.515625 0 -2.390625 -1.078125q-1.03125 -1.3125 -1.03125 -4.265625zm1.328125 0q0 2.578125 0.59375 3.4375q0.609375 0.859375 1.5 0.859375q0.890625 0 1.484375 -0.859375q0.609375 -0.859375 0.609375 -3.4375q0 -2.59375 -0.609375 -3.4375q-0.59375 -0.859375 -1.5 -0.859375q-0.890625 0 -1.421875 0.75q-0.65625 0.96875 -0.65625 3.546875zm7.541748 5.171875l0 -1.46875l1.46875 0l0 1.46875l-1.46875 0zm3.3532104 -5.171875q0 -1.859375 0.375 -2.984375q0.390625 -1.140625 1.140625 -1.75q0.765625 -0.625 1.90625 -0.625q0.84375 0 1.46875 0.34375q0.640625 0.328125 1.0625 0.96875q0.421875 0.640625 0.65625 1.5625q0.234375 0.921875 0.234375 2.484375q0 1.84375 -0.390625 2.984375q-0.375 1.125 -1.125 1.75q-0.75 0.609375 -1.90625 0.609375q-1.515625 0 -2.390625 -1.078125q-1.03125 -1.3125 -1.03125 -4.265625zm1.328125 0q0 2.578125 0.59375 3.4375q0.609375 0.859375 1.5 0.859375q0.890625 0 1.484375 -0.859375q0.609375 -0.859375 0.609375 -3.4375q0 -2.59375 -0.609375 -3.4375q-0.59375 -0.859375 -1.5 -0.859375q-0.890625 0 -1.421875 0.75q-0.65625 0.96875 -0.65625 3.546875zm10.947998 5.171875l0 -2.515625l-4.546875 0l0 -1.171875l4.78125 -6.796875l1.0625 0l0 6.796875l1.40625 0l0 1.171875l-1.40625 0l0 2.515625l-1.296875 0zm0 -3.6875l0 -4.734375l-3.28125 4.734375l3.28125 0zm4.276062 -4.28125q0 -1.125 0.5625 -1.90625q0.5625 -0.796875 1.640625 -0.796875q0.984375 0 1.625 0.703125q0.65625 0.703125 0.65625 2.078125q0 1.328125 -0.65625 2.046875q-0.65625 0.71875 -1.625 0.71875q-0.9375 0 -1.578125 -0.703125q-0.625 -0.71875 -0.625 -2.140625zm2.234375 -1.8125q-0.484375 0 -0.8125 0.421875q-0.3125 0.40625 -0.3125 1.515625q0 1.015625 0.328125 1.421875q0.328125 0.40625 0.796875 0.40625q0.484375 0 0.796875 -0.40625q0.328125 -0.421875 0.328125 -1.515625q0 -1.015625 -0.328125 -1.421875q-0.3125 -0.421875 -0.796875 -0.421875zm0 10.171875l5.75 -11.0625l1.046875 0l-5.71875 11.0625l-1.078125 0zm4.546875 -2.859375q0 -1.125 0.5625 -1.90625q0.5625 -0.78125 1.640625 -0.78125q0.984375 0 1.625 0.703125q0.65625 0.703125 0.65625 2.0625q0 1.34375 -0.65625 2.0625q-0.640625 0.71875 -1.609375 0.71875q-0.953125 0 -1.59375 -0.703125q-0.625 -0.71875 -0.625 -2.15625zm2.25 -1.796875q-0.5 0 -0.8125 0.421875q-0.3125 0.40625 -0.3125 1.515625q0 1.0 0.3125 1.421875q0.328125 0.40625 0.796875 0.40625q0.5 0 0.8125 -0.40625q0.3125 -0.421875 0.3125 -1.53125q0 -1.015625 -0.328125 -1.421875q-0.3125 -0.40625 -0.78125 -0.40625z" fill-rule="nonzero"/><path fill="#f3f3f3" d="m863.1982 349.25067l44.850403 0l0 18.015747l-44.850403 0z" fill-rule="evenodd"/><path stroke="#999999" stroke-width="1.0" stroke-linejoin="round" stroke-linecap="butt" d="m863.1982 349.25067l44.850403 0l0 18.015747l-44.850403 0z" fill-rule="evenodd"/><path fill="#999999" d="m865.4542 358.16666q0 -1.859375 0.375 -2.984375q0.390625 -1.140625 1.140625 -1.75q0.765625 -0.625 1.90625 -0.625q0.84375 0 1.46875 0.34375q0.640625 0.328125 1.0625 0.96875q0.421875 0.640625 0.65625 1.5625q0.234375 0.921875 0.234375 2.484375q0 1.84375 -0.390625 2.984375q-0.375 1.125 -1.125 1.75q-0.75 0.609375 -1.90625 0.609375q-1.515625 0 -2.390625 -1.078125q-1.03125 -1.3125 -1.03125 -4.265625zm1.328125 0q0 2.578125 0.59375 3.4375q0.609375 0.859375 1.5 0.859375q0.890625 0 1.484375 -0.859375q0.609375 -0.859375 0.609375 -3.4375q0 -2.59375 -0.609375 -3.4375q-0.59375 -0.859375 -1.5 -0.859375q-0.890625 0 -1.421875 0.75q-0.65625 0.96875 -0.65625 3.546875zm7.541748 5.171875l0 -1.46875l1.46875 0l0 1.46875l-1.46875 0zm3.3532104 -5.171875q0 -1.859375 0.375 -2.984375q0.390625 -1.140625 1.140625 -1.75q0.765625 -0.625 1.90625 -0.625q0.84375 0 1.46875 0.34375q0.640625 0.328125 1.0625 0.96875q0.421875 0.640625 0.65625 1.5625q0.234375 0.921875 0.234375 2.484375q0 1.84375 -0.390625 2.984375q-0.375 1.125 -1.125 1.75q-0.75 0.609375 -1.90625 0.609375q-1.515625 0 -2.390625 -1.078125q-1.03125 -1.3125 -1.03125 -4.265625zm1.328125 0q0 2.578125 0.59375 3.4375q0.609375 0.859375 1.5 0.859375q0.890625 0 1.484375 -0.859375q0.609375 -0.859375 0.609375 -3.4375q0 -2.59375 -0.609375 -3.4375q-0.59375 -0.859375 -1.5 -0.859375q-0.890625 0 -1.421875 0.75q-0.65625 0.96875 -0.65625 3.546875zm11.666748 5.171875l-1.28125 0l0 -8.203125q-0.46875 0.4375 -1.21875 0.890625q-0.75 0.4375 -1.359375 0.65625l0 -1.25q1.078125 -0.5 1.890625 -1.21875q0.8125 -0.734375 1.140625 -1.40625l0.828125 0l0 10.53125zm3.557312 -7.96875q0 -1.125 0.5625 -1.90625q0.5625 -0.796875 1.640625 -0.796875q0.984375 0 1.625 0.703125q0.65625 0.703125 0.65625 2.078125q0 1.328125 -0.65625 2.046875q-0.65625 0.71875 -1.625 0.71875q-0.9375 0 -1.578125 -0.703125q-0.625 -0.71875 -0.625 -2.140625zm2.234375 -1.8125q-0.484375 0 -0.8125 0.421875q-0.3125 0.40625 -0.3125 1.515625q0 1.015625 0.328125 1.421875q0.328125 0.40625 0.796875 0.40625q0.484375 0 0.796875 -0.40625q0.328125 -0.421875 0.328125 -1.515625q0 -1.015625 -0.328125 -1.421875q-0.3125 -0.421875 -0.796875 -0.421875zm0 10.171875l5.75 -11.0625l1.046875 0l-5.71875 11.0625l-1.078125 0zm4.546875 -2.859375q0 -1.125 0.5625 -1.90625q0.5625 -0.78125 1.640625 -0.78125q0.984375 0 1.625 0.703125q0.65625 0.703125 0.65625 2.0625q0 1.34375 -0.65625 2.0625q-0.640625 0.71875 -1.609375 0.71875q-0.953125 0 -1.59375 -0.703125q-0.625 -0.71875 -0.625 -2.15625zm2.25 -1.796875q-0.5 0 -0.8125 0.421875q-0.3125 0.40625 -0.3125 1.515625q0 1.0 0.3125 1.421875q0.328125 0.40625 0.796875 0.40625q0.5 0 0.8125 -0.40625q0.3125 -0.421875 0.3125 -1.53125q0 -1.015625 -0.328125 -1.421875q-0.3125 -0.40625 -0.78125 -0.40625z" fill-rule="nonzero"/><path fill="#f3f3f3" d="m863.1982 422.8622l44.850403 0l0 18.015747l-44.850403 0z" fill-rule="evenodd"/><path stroke="#999999" stroke-width="1.0" stroke-linejoin="round" stroke-linecap="butt" d="m863.1982 422.8622l44.850403 0l0 18.015747l-44.850403 0z" fill-rule="evenodd"/><path fill="#674ea7" d="m869.5792 436.95007l0 -2.515625l-4.546875 0l0 -1.171875l4.78125 -6.796875l1.0625 0l0 6.796875l1.40625 0l0 1.171875l-1.40625 0l0 2.515625l-1.296875 0zm0 -3.6875l0 -4.734375l-3.28125 4.734375l3.28125 0zm4.744873 3.6875l0 -1.46875l1.46875 0l0 1.46875l-1.46875 0zm3.4313354 -9.125l0 -1.234375l6.796875 0l0 1.0q-1.0 1.078125 -1.984375 2.84375q-0.984375 1.765625 -1.515625 3.625q-0.390625 1.328125 -0.5 2.890625l-1.328125 0q0.03125 -1.234375 0.484375 -2.984375q0.46875 -1.765625 1.34375 -3.390625q0.875 -1.625 1.84375 -2.75l-5.140625 0zm8.072998 6.375l1.34375 -0.109375q0.15625 0.984375 0.703125 1.484375q0.546875 0.5 1.328125 0.5q0.921875 0 1.5625 -0.703125q0.65625 -0.703125 0.65625 -1.859375q0 -1.109375 -0.625 -1.734375q-0.625 -0.640625 -1.625 -0.640625q-0.625 0 -1.125 0.28125q-0.5 0.28125 -0.78125 0.734375l-1.203125 -0.15625l1.015625 -5.390625l5.21875 0l0 1.21875l-4.1875 0l-0.578125 2.828125q0.953125 -0.65625 1.984375 -0.65625q1.375 0 2.3125 0.953125q0.953125 0.953125 0.953125 2.4375q0 1.4375 -0.828125 2.46875q-1.015625 1.265625 -2.75 1.265625q-1.4375 0 -2.34375 -0.796875q-0.90625 -0.796875 -1.03125 -2.125zm8.401062 -5.21875q0 -1.125 0.5625 -1.90625q0.5625 -0.796875 1.640625 -0.796875q0.984375 0 1.625 0.703125q0.65625 0.703125 0.65625 2.078125q0 1.328125 -0.65625 2.046875q-0.65625 0.71875 -1.625 0.71875q-0.9375 0 -1.578125 -0.703125q-0.625 -0.71875 -0.625 -2.140625zm2.234375 -1.8125q-0.484375 0 -0.8125 0.421875q-0.3125 0.40625 -0.3125 1.515625q0 1.015625 0.328125 1.421875q0.328125 0.40625 0.796875 0.40625q0.484375 0 0.796875 -0.40625q0.328125 -0.421875 0.328125 -1.515625q0 -1.015625 -0.328125 -1.421875q-0.3125 -0.421875 -0.796875 -0.421875zm0 10.171875l5.75 -11.0625l1.046875 0l-5.71875 11.0625l-1.078125 0zm4.546875 -2.859375q0 -1.125 0.5625 -1.90625q0.5625 -0.78125 1.640625 -0.78125q0.984375 0 1.625 0.703125q0.65625 0.703125 0.65625 2.0625q0 1.34375 -0.65625 2.0625q-0.640625 0.71875 -1.609375 0.71875q-0.953125 0 -1.59375 -0.703125q-0.625 -0.71875 -0.625 -2.15625zm2.25 -1.796875q-0.5 0 -0.8125 0.421875q-0.3125 0.40625 -0.3125 1.515625q0 1.0 0.3125 1.421875q0.328125 0.40625 0.796875 0.40625q0.5 0 0.8125 -0.40625q0.3125 -0.421875 0.3125 -1.53125q0 -1.015625 -0.328125 -1.421875q-0.3125 -0.40625 -0.78125 -0.40625z" fill-rule="nonzero"/><path fill="#f3f3f3" d="m863.1982 498.45276l44.850403 0l0 18.015747l-44.850403 0z" fill-rule="evenodd"/><path stroke="#999999" stroke-width="1.0" stroke-linejoin="round" stroke-linecap="butt" d="m863.1982 498.45276l44.850403 0l0 18.015747l-44.850403 0z" fill-rule="evenodd"/><path fill="#999999" d="m869.5298 507.36874q0 -1.859375 0.375 -2.984375q0.390625 -1.140625 1.140625 -1.75q0.765625 -0.625 1.90625 -0.625q0.84375 0 1.46875 0.34375q0.640625 0.328125 1.0625 0.96875q0.421875 0.640625 0.65625 1.5625q0.234375 0.921875 0.234375 2.484375q0 1.84375 -0.390625 2.984375q-0.375 1.125 -1.125 1.7500305q-0.75 0.609375 -1.90625 0.609375q-1.515625 0 -2.390625 -1.0781555q-1.03125 -1.3125 -1.03125 -4.265625zm1.328125 0q0 2.578125 0.59375 3.4375q0.609375 0.859375 1.5 0.859375q0.890625 0 1.484375 -0.859375q0.609375 -0.859375 0.609375 -3.4375q0 -2.59375 -0.609375 -3.4375q-0.59375 -0.859375 -1.5 -0.859375q-0.890625 0 -1.421875 0.75q-0.65625 0.96875 -0.65625 3.546875zm7.541687 5.1719055l0 -1.4687805l1.46875 0l0 1.4687805l-1.46875 0zm10.1188965 -1.2344055l0 1.2344055l-6.9375 0q-0.015625 -0.46875 0.15625 -0.8906555q0.265625 -0.71875 0.84375 -1.40625q0.59375 -0.6875 1.6875 -1.578125q1.71875 -1.40625 2.3125 -2.21875q0.609375 -0.828125 0.609375 -1.5625q0 -0.765625 -0.5625 -1.28125q-0.546875 -0.53125 -1.421875 -0.53125q-0.921875 0 -1.484375 0.5625q-0.5625 0.5625 -0.5625 1.546875l-1.328125 -0.140625q0.140625 -1.484375 1.015625 -2.25q0.890625 -0.78125 2.390625 -0.78125q1.515625 0 2.390625 0.84375q0.875 0.828125 0.875 2.0625q0 0.640625 -0.265625 1.25q-0.25 0.59375 -0.84375 1.265625q-0.59375 0.671875 -1.984375 1.859375q-1.15625 0.96875 -1.484375 1.3125q-0.328125 0.34375 -0.546875 0.703125l5.140625 0zm1.635437 -6.734375q0 -1.125 0.5625 -1.90625q0.5625 -0.796875 1.640625 -0.796875q0.984375 0 1.625 0.703125q0.65625 0.703125 0.65625 2.078125q0 1.328125 -0.65625 2.046875q-0.65625 0.71875 -1.625 0.71875q-0.9375 0 -1.578125 -0.703125q-0.625 -0.71875 -0.625 -2.140625zm2.234375 -1.8125q-0.484375 0 -0.8125 0.421875q-0.3125 0.40625 -0.3125 1.515625q0 1.015625 0.328125 1.421875q0.328125 0.40625 0.796875 0.40625q0.484375 0 0.796875 -0.40625q0.328125 -0.421875 0.328125 -1.515625q0 -1.015625 -0.328125 -1.421875q-0.3125 -0.421875 -0.796875 -0.421875zm0 10.1719055l5.75 -11.0625305l1.046875 0l-5.71875 11.0625305l-1.078125 0zm4.546875 -2.8594055q0 -1.125 0.5625 -1.90625q0.5625 -0.78125 1.640625 -0.78125q0.984375 0 1.625 0.703125q0.65625 0.703125 0.65625 2.0625q0 1.34375 -0.65625 2.0625305q-0.640625 0.71875 -1.609375 0.71875q-0.953125 0 -1.59375 -0.703125q-0.625 -0.7187805 -0.625 -2.1562805zm2.25 -1.796875q-0.5 0 -0.8125 0.421875q-0.3125 0.40625 -0.3125 1.515625q0 1.0 0.3125 1.421875q0.328125 0.40628052 0.796875 0.40628052q0.5 0 0.8125 -0.40628052q0.3125 -0.421875 0.3125 -1.53125q0 -1.015625 -0.328125 -1.421875q-0.3125 -0.40625 -0.78125 -0.40625z" fill-rule="nonzero"/><path fill="#f3f3f3" d="m863.1982 574.04333l44.850403 0l0 18.015747l-44.850403 0z" fill-rule="evenodd"/><path stroke="#999999" stroke-width="1.0" stroke-linejoin="round" stroke-linecap="butt" d="m863.1982 574.04333l44.850403 0l0 18.015747l-44.850403 0z" fill-rule="evenodd"/><path fill="#b45f06" d="m872.21985 586.8968l0 1.234375l-6.9375 0q-0.015625 -0.46875 0.15625 -0.890625q0.265625 -0.71875 0.84375 -1.40625q0.59375 -0.6875 1.6875 -1.578125q1.71875 -1.40625 2.3125 -2.21875q0.609375 -0.828125 0.609375 -1.5625q0 -0.765625 -0.5625 -1.28125q-0.546875 -0.53125 -1.421875 -0.53125q-0.921875 0 -1.484375 0.5625q-0.5625 0.5625 -0.5625 1.546875l-1.328125 -0.140625q0.140625 -1.484375 1.015625 -2.25q0.890625 -0.78125 2.390625 -0.78125q1.515625 0 2.390625 0.84375q0.875 0.828125 0.875 2.0625q0 0.640625 -0.265625 1.25q-0.25 0.59375 -0.84375 1.265625q-0.59375 0.671875 -1.984375 1.859375q-1.15625 0.96875 -1.484375 1.3125q-0.328125 0.34375 -0.546875 0.703125l5.140625 0zm1.572998 -1.1875l1.25 -0.125q0.15625 0.875 0.59375 1.28125q0.4375 0.390625 1.140625 0.390625q0.59375 0 1.03125 -0.265625q0.453125 -0.28125 0.734375 -0.734375q0.296875 -0.453125 0.484375 -1.21875q0.1875 -0.78125 0.1875 -1.59375q0 -0.078125 0 -0.25q-0.390625 0.609375 -1.0625 1.0q-0.65625 0.375 -1.4375 0.375q-1.3125 0 -2.21875 -0.9375q-0.890625 -0.953125 -0.890625 -2.484375q0 -1.609375 0.9375 -2.578125q0.9375 -0.96875 2.359375 -0.96875q1.03125 0 1.875 0.546875q0.84375 0.546875 1.28125 1.578125q0.4375 1.015625 0.4375 2.953125q0 2.0 -0.4375 3.203125q-0.421875 1.1875 -1.296875 1.8125q-0.859375 0.609375 -2.015625 0.609375q-1.234375 0 -2.015625 -0.671875q-0.78125 -0.6875 -0.9375 -1.921875zm5.28125 -4.640625q0 -1.109375 -0.59375 -1.75q-0.59375 -0.65625 -1.421875 -0.65625q-0.859375 0 -1.5 0.703125q-0.625 0.703125 -0.625 1.8125q0 1.0 0.59375 1.640625q0.609375 0.625 1.5 0.625q0.890625 0 1.46875 -0.625q0.578125 -0.640625 0.578125 -1.75zm3.401062 7.0625l0 -1.46875l1.46875 0l0 1.46875l-1.46875 0zm5.3376465 -5.6875q-0.796875 -0.296875 -1.1875 -0.84375q-0.390625 -0.546875 -0.390625 -1.296875q0 -1.140625 0.8125 -1.921875q0.828125 -0.78125 2.203125 -0.78125q1.375 0 2.203125 0.796875q0.84375 0.796875 0.84375 1.9375q0 0.734375 -0.390625 1.28125q-0.375 0.53125 -1.15625 0.828125q0.96875 0.3125 1.46875 1.015625q0.5 0.703125 0.5 1.671875q0 1.34375 -0.953125 2.265625q-0.9375 0.90625 -2.5 0.90625q-1.546875 0 -2.5 -0.90625q-0.953125 -0.921875 -0.953125 -2.296875q0 -1.03125 0.515625 -1.71875q0.515625 -0.6875 1.484375 -0.9375zm-0.265625 -2.1875q0 0.75 0.484375 1.21875q0.484375 0.46875 1.25 0.46875q0.734375 0 1.203125 -0.46875q0.484375 -0.46875 0.484375 -1.140625q0 -0.71875 -0.5 -1.1875q-0.484375 -0.484375 -1.203125 -0.484375q-0.734375 0 -1.234375 0.46875q-0.484375 0.46875 -0.484375 1.125zm-0.40625 4.84375q0 0.5625 0.25 1.078125q0.265625 0.5 0.78125 0.796875q0.515625 0.28125 1.109375 0.28125q0.921875 0 1.515625 -0.59375q0.609375 -0.59375 0.609375 -1.515625q0 -0.9375 -0.625 -1.53125q-0.609375 -0.609375 -1.546875 -0.609375q-0.90625 0 -1.5 0.609375q-0.59375 0.59375 -0.59375 1.484375zm7.088562 -4.9375q0 -1.125 0.5625 -1.90625q0.5625 -0.796875 1.640625 -0.796875q0.984375 0 1.625 0.703125q0.65625 0.703125 0.65625 2.078125q0 1.328125 -0.65625 2.046875q-0.65625 0.71875 -1.625 0.71875q-0.9375 0 -1.578125 -0.703125q-0.625 -0.71875 -0.625 -2.140625zm2.234375 -1.8125q-0.484375 0 -0.8125 0.421875q-0.3125 0.40625 -0.3125 1.515625q0 1.015625 0.328125 1.421875q0.328125 0.40625 0.796875 0.40625q0.484375 0 0.796875 -0.40625q0.328125 -0.421875 0.328125 -1.515625q0 -1.015625 -0.328125 -1.421875q-0.3125 -0.421875 -0.796875 -0.421875zm0 10.171875l5.75 -11.0625l1.046875 0l-5.71875 11.0625l-1.078125 0zm4.546875 -2.859375q0 -1.125 0.5625 -1.90625q0.5625 -0.78125 1.640625 -0.78125q0.984375 0 1.625 0.703125q0.65625 0.703125 0.65625 2.0625q0 1.34375 -0.65625 2.0625q-0.640625 0.71875 -1.609375 0.71875q-0.953125 0 -1.59375 -0.703125q-0.625 -0.71875 -0.625 -2.15625zm2.25 -1.796875q-0.5 0 -0.8125 0.421875q-0.3125 0.40625 -0.3125 1.515625q0 1.0 0.3125 1.421875q0.328125 0.40625 0.796875 0.40625q0.5 0 0.8125 -0.40625q0.3125 -0.421875 0.3125 -1.53125q0 -1.015625 -0.328125 -1.421875q-0.3125 -0.40625 -0.78125 -0.40625z" fill-rule="nonzero"/><path fill="#000000" fill-opacity="0.0" d="m384.24408 423.48688l59.496063 0" fill-rule="evenodd"/><path stroke="#674ea7" stroke-width="2.0" stroke-linejoin="round" stroke-linecap="butt" d="m384.24408 423.48688l59.496063 0" fill-rule="evenodd"/><path fill="#000000" fill-opacity="0.0" d="m465.74933 424.14566l59.496094 0" fill-rule="evenodd"/><path stroke="#674ea7" stroke-width="2.0" stroke-linejoin="round" stroke-linecap="butt" d="m465.74933 424.14566l59.496094 0" fill-rule="evenodd"/><path fill="#000000" fill-opacity="0.0" d="m542.647 422.8281l59.496094 0" fill-rule="evenodd"/><path stroke="#674ea7" stroke-width="2.0" stroke-linejoin="round" stroke-linecap="butt" d="m542.647 422.8281l59.496094 0" fill-rule="evenodd"/><path fill="#000000" fill-opacity="0.0" d="m429.48557 418.22495l59.496063 0" fill-rule="evenodd"/><path stroke="#674ea7" stroke-width="2.0" stroke-linejoin="round" stroke-linecap="butt" d="m429.48557 418.22495l59.496063 0" fill-rule="evenodd"/><path fill="#000000" fill-opacity="0.0" d="m588.3202 414.93307l59.496094 0" fill-rule="evenodd"/><path stroke="#674ea7" stroke-width="2.0" stroke-linejoin="round" stroke-linecap="butt" d="m588.3202 414.93307l59.496094 0" fill-rule="evenodd"/><path fill="#000000" fill-opacity="0.0" d="m683.8268 423.1378l59.496033 0" fill-rule="evenodd"/><path stroke="#674ea7" stroke-width="2.0" stroke-linejoin="round" stroke-linecap="butt" d="m683.8268 423.1378l59.496033 0" fill-rule="evenodd"/><path fill="#000000" fill-opacity="0.0" d="m767.0866 421.91733l59.496094 0" fill-rule="evenodd"/><path stroke="#674ea7" stroke-width="2.0" stroke-linejoin="round" stroke-linecap="butt" d="m767.0866 421.91733l59.496094 0" fill-rule="evenodd"/><path fill="#000000" fill-opacity="0.0" d="m384.24408 572.0696l59.496063 0" fill-rule="evenodd"/><path stroke="#b45f06" stroke-width="2.0" stroke-linejoin="round" stroke-linecap="butt" d="m384.24408 572.0696l59.496063 0" fill-rule="evenodd"/><path fill="#000000" fill-opacity="0.0" d="m514.79004 572.0696l59.496033 0" fill-rule="evenodd"/><path stroke="#b45f06" stroke-width="2.0" stroke-linejoin="round" stroke-linecap="butt" d="m514.79004 572.0696l59.496033 0" fill-rule="evenodd"/><path fill="#000000" fill-opacity="0.0" d="m577.2703 572.0696l59.496094 0" fill-rule="evenodd"/><path stroke="#b45f06" stroke-width="2.0" stroke-linejoin="round" stroke-linecap="butt" d="m577.2703 572.0696l59.496094 0" fill-rule="evenodd"/><path fill="#000000" fill-opacity="0.0" d="m449.49606 572.07007l59.496063 0" fill-rule="evenodd"/><path stroke="#b45f06" stroke-width="2.0" stroke-linejoin="round" stroke-linecap="butt" d="m449.49606 572.07007l59.496063 0" fill-rule="evenodd"/><path fill="#000000" fill-opacity="0.0" d="m667.4593 572.0696l59.496094 0" fill-rule="evenodd"/><path stroke="#b45f06" stroke-width="2.0" stroke-linejoin="round" stroke-linecap="butt" d="m667.4593 572.0696l59.496094 0" fill-rule="evenodd"/><path fill="#000000" fill-opacity="0.0" d="m767.0866 572.0696l59.496094 0" fill-rule="evenodd"/><path stroke="#b45f06" stroke-width="2.0" stroke-linejoin="round" stroke-linecap="butt" d="m767.0866 572.0696l59.496094 0" fill-rule="evenodd"/><path fill="#000000" fill-opacity="0.0" d="m371.60892 568.2297l59.496063 0" fill-rule="evenodd"/><path stroke="#b45f06" stroke-width="2.0" stroke-linejoin="round" stroke-linecap="butt" d="m371.60892 568.2297l59.496063 0" fill-rule="evenodd"/><path fill="#000000" fill-opacity="0.0" d="m434.4252 567.7047l59.496063 0" fill-rule="evenodd"/><path stroke="#b45f06" stroke-width="2.0" stroke-linejoin="round" stroke-linecap="butt" d="m434.4252 567.7047l59.496063 0" fill-rule="evenodd"/><path fill="#000000" fill-opacity="0.0" d="m497.24408 568.2507l59.496094 0" fill-rule="evenodd"/><path stroke="#b45f06" stroke-width="2.0" stroke-linejoin="round" stroke-linecap="butt" d="m497.24408 568.2507l59.496094 0" fill-rule="evenodd"/><path fill="#000000" fill-opacity="0.0" d="m753.22046 567.61285l59.496094 0" fill-rule="evenodd"/><path stroke="#b45f06" stroke-width="2.0" stroke-linejoin="round" stroke-linecap="butt" d="m753.22046 567.61285l59.496094 0" fill-rule="evenodd"/><path fill="#000000" fill-opacity="0.0" d="m628.8425 567.61285l59.496033 0" fill-rule="evenodd"/><path stroke="#b45f06" stroke-width="2.0" stroke-linejoin="round" stroke-linecap="butt" d="m628.8425 567.61285l59.496033 0" fill-rule="evenodd"/><path fill="#000000" fill-opacity="0.0" d="m437.74802 562.5971l59.496063 0" fill-rule="evenodd"/><path stroke="#b45f06" stroke-width="2.0" stroke-linejoin="round" stroke-linecap="butt" d="m437.74802 562.5971l59.496063 0" fill-rule="evenodd"/><path fill="#000000" fill-opacity="0.0" d="m504.2021 562.68896l59.496094 0" fill-rule="evenodd"/><path stroke="#b45f06" stroke-width="2.0" stroke-linejoin="round" stroke-linecap="butt" d="m504.2021 562.68896l59.496094 0" fill-rule="evenodd"/><path fill="#000000" fill-opacity="0.0" d="m574.2861 562.3268l59.496094 0" fill-rule="evenodd"/><path stroke="#b45f06" stroke-width="2.0" stroke-linejoin="round" stroke-linecap="butt" d="m574.2861 562.3268l59.496094 0" fill-rule="evenodd"/><path fill="#000000" fill-opacity="0.0" d="m639.6352 563.4619l59.496033 0" fill-rule="evenodd"/><path stroke="#b45f06" stroke-width="2.0" stroke-linejoin="round" stroke-linecap="butt" d="m639.6352 563.4619l59.496033 0" fill-rule="evenodd"/><path fill="#000000" fill-opacity="0.0" d="m726.9554 563.27954l59.496033 0" fill-rule="evenodd"/><path stroke="#b45f06" stroke-width="2.0" stroke-linejoin="round" stroke-linecap="butt" d="m726.9554 563.27954l59.496033 0" fill-rule="evenodd"/><path fill="#000000" fill-opacity="0.0" d="m371.61023 496.77954l59.496063 0" fill-rule="evenodd"/><path stroke="#999999" stroke-width="2.0" stroke-linejoin="round" stroke-linecap="butt" d="m371.61023 496.77954l59.496063 0" fill-rule="evenodd"/><path fill="#000000" fill-opacity="0.0" d="m379.3058 491.46457l59.496063 0" fill-rule="evenodd"/><path stroke="#999999" stroke-width="2.0" stroke-linejoin="round" stroke-linecap="butt" d="m379.3058 491.46457l59.496063 0" fill-rule="evenodd"/><path fill="#000000" fill-opacity="0.0" d="m443.74146 498.51443l59.496063 0" fill-rule="evenodd"/><path stroke="#999999" stroke-width="2.0" stroke-linejoin="round" stroke-linecap="butt" d="m443.74146 498.51443l59.496063 0" fill-rule="evenodd"/><path fill="#000000" fill-opacity="0.0" d="m455.2953 491.4449l59.496033 0" fill-rule="evenodd"/><path stroke="#999999" stroke-width="2.0" stroke-linejoin="round" stroke-linecap="butt" d="m455.2953 491.4449l59.496033 0" fill-rule="evenodd"/><path fill="#000000" fill-opacity="0.0" d="m588.32153 493.85303l59.496033 0" fill-rule="evenodd"/><path stroke="#999999" stroke-width="2.0" stroke-linejoin="round" stroke-linecap="butt" d="m588.32153 493.85303l59.496033 0" fill-rule="evenodd"/><path fill="#000000" fill-opacity="0.0" d="m734.5026 494.3504l59.496033 0" fill-rule="evenodd"/><path stroke="#999999" stroke-width="2.0" stroke-linejoin="round" stroke-linecap="butt" d="m734.5026 494.3504l59.496033 0" fill-rule="evenodd"/><path fill="#000000" fill-opacity="0.0" d="m588.32153 349.57086l59.496033 0" fill-rule="evenodd"/><path stroke="#999999" stroke-width="2.0" stroke-linejoin="round" stroke-linecap="butt" d="m588.32153 349.57086l59.496033 0" fill-rule="evenodd"/><path fill="#000000" fill-opacity="0.0" d="m414.29266 198.67455l59.496063 0" fill-rule="evenodd"/><path stroke="#999999" stroke-width="2.0" stroke-linejoin="round" stroke-linecap="butt" d="m414.29266 198.67455l59.496063 0" fill-rule="evenodd"/><path fill="#000000" fill-opacity="0.0" d="m525.2454 199.5433l59.496033 0" fill-rule="evenodd"/><path stroke="#999999" stroke-width="2.0" stroke-linejoin="round" stroke-linecap="butt" d="m525.2454 199.5433l59.496033 0" fill-rule="evenodd"/><path fill="#000000" fill-opacity="0.0" d="m755.647 200.21654l59.496094 0" fill-rule="evenodd"/><path stroke="#999999" stroke-width="2.0" stroke-linejoin="round" stroke-linecap="butt" d="m755.647 200.21654l59.496094 0" fill-rule="evenodd"/><path fill="#000000" fill-opacity="0.0" d="m525.2454 273.45538l59.496033 0" fill-rule="evenodd"/><path stroke="#999999" stroke-width="2.0" stroke-linejoin="round" stroke-linecap="butt" d="m525.2454 273.45538l59.496033 0" fill-rule="evenodd"/><path fill="#000000" fill-opacity="0.0" d="m750.5026 209.19292l59.496033 0" fill-rule="evenodd"/><path stroke="#999999" stroke-width="2.0" stroke-linejoin="round" stroke-linecap="butt" d="m750.5026 209.19292l59.496033 0" fill-rule="evenodd"/><path fill="#000000" fill-opacity="0.0" d="m417.26117 276.46194l59.496063 0" fill-rule="evenodd"/><path stroke="#999999" stroke-width="2.0" stroke-linejoin="round" stroke-linecap="butt" d="m417.26117 276.46194l59.496063 0" fill-rule="evenodd"/><path fill="#000000" fill-opacity="0.0" d="m363.53412 417.80185l59.496063 0" fill-rule="evenodd"/><path stroke="#999999" stroke-width="2.0" stroke-linejoin="round" stroke-linecap="butt" d="m363.53412 417.80185l59.496063 0" fill-rule="evenodd"/><path fill="#000000" fill-opacity="0.0" d="m497.2454 416.64304l59.496063 0" fill-rule="evenodd"/><path stroke="#999999" stroke-width="2.0" stroke-linejoin="round" stroke-linecap="butt" d="m497.2454 416.64304l59.496063 0" fill-rule="evenodd"/><path fill="#000000" fill-opacity="0.0" d="m653.4265 415.4344l59.496033 0" fill-rule="evenodd"/><path stroke="#999999" stroke-width="2.0" stroke-linejoin="round" stroke-linecap="butt" d="m653.4265 415.4344l59.496033 0" fill-rule="evenodd"/><path fill="#000000" fill-opacity="0.0" d="m743.32416 415.5551l59.496033 0" fill-rule="evenodd"/><path stroke="#999999" stroke-width="2.0" stroke-linejoin="round" stroke-linecap="butt" d="m743.32416 415.5551l59.496033 0" fill-rule="evenodd"/><path fill="#000000" fill-opacity="0.0" d="m607.96454 423.1942l59.496094 0" fill-rule="evenodd"/><path stroke="#999999" stroke-width="2.0" stroke-linejoin="round" stroke-linecap="butt" d="m607.96454 423.1942l59.496094 0" fill-rule="evenodd"/><path fill="#000000" fill-opacity="0.0" d="m369.9908 563.58923l59.496063 0" fill-rule="evenodd"/><path stroke="#999999" stroke-width="2.0" stroke-linejoin="round" stroke-linecap="butt" d="m369.9908 563.58923l59.496063 0" fill-rule="evenodd"/><path fill="#000000" fill-opacity="0.0" d="m647.81757 557.06696l59.496094 0" fill-rule="evenodd"/><path stroke="#999999" stroke-width="2.0" stroke-linejoin="round" stroke-linecap="butt" d="m647.81757 557.06696l59.496094 0" fill-rule="evenodd"/><path fill="#000000" fill-opacity="0.0" d="m551.8018 557.38055l59.496094 0" fill-rule="evenodd"/><path stroke="#999999" stroke-width="2.0" stroke-linejoin="round" stroke-linecap="butt" d="m551.8018 557.38055l59.496094 0" fill-rule="evenodd"/><path fill="#000000" fill-opacity="0.0" d="m776.40027 558.05646l59.496033 0" fill-rule="evenodd"/><path stroke="#999999" stroke-width="2.0" stroke-linejoin="round" stroke-linecap="butt" d="m776.40027 558.05646l59.496033 0" fill-rule="evenodd"/><path fill="#000000" fill-opacity="0.0" d="m668.4514 639.62994l57.51184 0" fill-rule="evenodd"/><path stroke="#999999" stroke-width="4.0" stroke-linejoin="round" stroke-linecap="butt" d="m668.4514 639.62994l57.51184 0" fill-rule="evenodd"/><path fill="#000000" fill-opacity="0.0" d="m668.9711 675.42255l18.960632 0" fill-rule="evenodd"/><path stroke="#3c78d8" stroke-width="4.0" stroke-linejoin="round" stroke-linecap="butt" d="m668.9711 675.42255l18.960632 0" fill-rule="evenodd"/><path fill="#000000" fill-opacity="0.0" d="m687.52234 675.42255l18.960571 0" fill-rule="evenodd"/><path stroke="#674ea7" stroke-width="4.0" stroke-linejoin="round" stroke-linecap="butt" d="m687.52234 675.42255l18.960571 0" fill-rule="evenodd"/><path fill="#000000" fill-opacity="0.0" d="m706.4829 675.42255l18.960632 0" fill-rule="evenodd"/><path stroke="#e69138" stroke-width="4.0" stroke-linejoin="round" stroke-linecap="butt" d="m706.4829 675.42255l18.960632 0" fill-rule="evenodd"/><path fill="#000000" fill-opacity="0.0" d="m422.04462 629.042l185.92126 0l0 42.015747l-185.92126 0z" fill-rule="evenodd"/><path fill="#000000" d="m432.48212 655.962l0 -13.359375l5.046875 0q1.328125 0 2.03125 0.125q0.96875 0.171875 1.640625 0.640625q0.671875 0.453125 1.078125 1.28125q0.40625 0.828125 0.40625 1.828125q0 1.703125 -1.09375 2.890625q-1.078125 1.171875 -3.921875 1.171875l-3.421875 0l0 5.421875l-1.765625 0zm1.765625 -7.0l3.453125 0q1.71875 0 2.4375 -0.640625q0.71875 -0.640625 0.71875 -1.796875q0 -0.84375 -0.421875 -1.4375q-0.421875 -0.59375 -1.125 -0.78125q-0.4375 -0.125 -1.640625 -0.125l-3.421875 0l0 4.78125zm9.865448 2.15625q0 -2.6875 1.484375 -3.96875q1.25 -1.078125 3.046875 -1.078125q2.0 0 3.265625 1.3125q1.265625 1.296875 1.265625 3.609375q0 1.859375 -0.5625 2.9375q-0.5625 1.0625 -1.640625 1.65625q-1.0625 0.59375 -2.328125 0.59375q-2.03125 0 -3.28125 -1.296875q-1.25 -1.3125 -1.25 -3.765625zm1.6875 0q0 1.859375 0.796875 2.796875q0.8125 0.921875 2.046875 0.921875q1.21875 0 2.03125 -0.921875q0.8125 -0.9375 0.8125 -2.84375q0 -1.796875 -0.8125 -2.71875q-0.8125 -0.921875 -2.03125 -0.921875q-1.234375 0 -2.046875 0.921875q-0.796875 0.90625 -0.796875 2.765625zm8.641357 1.953125l1.625 -0.25q0.125 0.96875 0.75 1.5q0.625 0.515625 1.75 0.515625q1.125 0 1.671875 -0.453125q0.546875 -0.46875 0.546875 -1.09375q0 -0.546875 -0.484375 -0.875q-0.328125 -0.21875 -1.671875 -0.546875q-1.8125 -0.46875 -2.515625 -0.796875q-0.6875 -0.328125 -1.046875 -0.90625q-0.359375 -0.59375 -0.359375 -1.3125q0 -0.640625 0.296875 -1.1875q0.296875 -0.5625 0.8125 -0.921875q0.375 -0.28125 1.03125 -0.46875q0.671875 -0.203125 1.421875 -0.203125q1.140625 0 2.0 0.328125q0.859375 0.328125 1.265625 0.890625q0.421875 0.5625 0.578125 1.5l-1.609375 0.21875q-0.109375 -0.75 -0.640625 -1.171875q-0.515625 -0.421875 -1.46875 -0.421875q-1.140625 0 -1.625 0.375q-0.46875 0.375 -0.46875 0.875q0 0.3125 0.1875 0.578125q0.203125 0.265625 0.640625 0.4375q0.234375 0.09375 1.4375 0.421875q1.75 0.453125 2.4375 0.75q0.6875 0.296875 1.078125 0.859375q0.390625 0.5625 0.390625 1.40625q0 0.828125 -0.484375 1.546875q-0.46875 0.71875 -1.375 1.125q-0.90625 0.390625 -2.046875 0.390625q-1.875 0 -2.875 -0.78125q-0.984375 -0.78125 -1.25 -2.328125zm13.5625 1.421875l0.234375 1.453125q-0.6875 0.140625 -1.234375 0.140625q-0.890625 0 -1.390625 -0.28125q-0.484375 -0.28125 -0.6875 -0.734375q-0.203125 -0.46875 -0.203125 -1.9375l0 -5.578125l-1.203125 0l0 -1.265625l1.203125 0l0 -2.390625l1.625 -0.984375l0 3.375l1.65625 0l0 1.265625l-1.65625 0l0 5.671875q0 0.6875 0.078125 0.890625q0.09375 0.203125 0.28125 0.328125q0.203125 0.109375 0.578125 0.109375q0.265625 0 0.71875 -0.0625zm7.0228577 1.46875l0 -13.359375l9.65625 0l0 1.578125l-7.875 0l0 4.09375l7.375 0l0 1.5625l-7.375 0l0 4.546875l8.1875 0l0 1.578125l-9.96875 0zm12.365448 0l0 -13.359375l2.65625 0l3.15625 9.453125q0.4375 1.328125 0.640625 1.984375q0.234375 -0.734375 0.703125 -2.140625l3.203125 -9.296875l2.375 0l0 13.359375l-1.703125 0l0 -11.171875l-3.875 11.171875l-1.59375 0l-3.859375 -11.375l0 11.375l-1.703125 0z" fill-rule="nonzero"/><path fill="#000000" fill-opacity="0.0" d="m734.50397 619.09973l173.54327 0l0 72.72443l-173.54327 0z" fill-rule="evenodd"/><path fill="#000000" d="m751.5196 631.6954l1.390625 0l0 6.046875q0 1.59375 -0.359375 2.53125q-0.359375 0.921875 -1.296875 1.5q-0.9375 0.578125 -2.453125 0.578125q-1.46875 0 -2.40625 -0.5q-0.9375 -0.515625 -1.34375 -1.46875q-0.390625 -0.96875 -0.390625 -2.640625l0 -6.046875l1.390625 0l0 6.046875q0 1.375 0.25 2.015625q0.25 0.640625 0.859375 1.0q0.625 0.34375 1.53125 0.34375q1.53125 0 2.171875 -0.6875q0.65625 -0.703125 0.65625 -2.671875l0 -6.046875zm3.5373535 10.484375l0 -7.59375l1.15625 0l0 1.078125q0.84375 -1.25 2.421875 -1.25q0.6875 0 1.265625 0.25q0.578125 0.234375 0.859375 0.640625q0.28125 0.40625 0.40625 0.953125q0.0625 0.359375 0.0625 1.25l0 4.671875l-1.28125 0l0 -4.625q0 -0.78125 -0.15625 -1.171875q-0.15625 -0.390625 -0.546875 -0.625q-0.375 -0.234375 -0.890625 -0.234375q-0.8125 0 -1.421875 0.53125q-0.59375 0.515625 -0.59375 1.96875l0 4.15625l-1.28125 0zm13.104248 -0.9375q-0.71875 0.609375 -1.375 0.859375q-0.65625 0.25 -1.421875 0.25q-1.25 0 -1.921875 -0.609375q-0.671875 -0.609375 -0.671875 -1.5625q0 -0.5625 0.25 -1.015625q0.25 -0.46875 0.65625 -0.75q0.421875 -0.28125 0.9375 -0.421875q0.375 -0.09375 1.140625 -0.1875q1.5625 -0.1875 2.296875 -0.453125q0.015625 -0.265625 0.015625 -0.328125q0 -0.796875 -0.375 -1.109375q-0.484375 -0.4375 -1.453125 -0.4375q-0.921875 0 -1.359375 0.328125q-0.421875 0.3125 -0.625 1.109375l-1.265625 -0.171875q0.171875 -0.796875 0.5625 -1.296875q0.390625 -0.5 1.140625 -0.765625q0.75 -0.265625 1.71875 -0.265625q0.984375 0 1.59375 0.234375q0.609375 0.21875 0.890625 0.5625q0.28125 0.34375 0.40625 0.875q0.0625 0.328125 0.0625 1.1875l0 1.71875q0 1.796875 0.078125 2.28125q0.078125 0.46875 0.328125 0.90625l-1.34375 0q-0.203125 -0.40625 -0.265625 -0.9375zm-0.109375 -2.875q-0.703125 0.28125 -2.09375 0.484375q-0.796875 0.109375 -1.125 0.265625q-0.328125 0.140625 -0.515625 0.421875q-0.171875 0.265625 -0.171875 0.59375q0 0.515625 0.390625 0.859375q0.390625 0.34375 1.140625 0.34375q0.734375 0 1.3125 -0.3125q0.59375 -0.328125 0.859375 -0.890625q0.203125 -0.4375 0.203125 -1.296875l0 -0.46875zm2.791748 1.546875l1.265625 -0.203125q0.109375 0.765625 0.59375 1.171875q0.5 0.40625 1.375 0.40625q0.890625 0 1.3125 -0.359375q0.4375 -0.359375 0.4375 -0.84375q0 -0.4375 -0.375 -0.6875q-0.265625 -0.171875 -1.3125 -0.4375q-1.421875 -0.359375 -1.96875 -0.609375q-0.546875 -0.265625 -0.828125 -0.734375q-0.28125 -0.46875 -0.28125 -1.015625q0 -0.515625 0.21875 -0.9375q0.234375 -0.4375 0.640625 -0.734375q0.296875 -0.21875 0.8125 -0.359375q0.53125 -0.15625 1.125 -0.15625q0.890625 0 1.5625 0.265625q0.671875 0.25 1.0 0.6875q0.328125 0.4375 0.4375 1.171875l-1.25 0.171875q-0.09375 -0.578125 -0.5 -0.90625q-0.40625 -0.34375 -1.15625 -0.34375q-0.890625 0 -1.28125 0.296875q-0.375 0.296875 -0.375 0.6875q0 0.25 0.15625 0.453125q0.15625 0.203125 0.5 0.34375q0.1875 0.078125 1.140625 0.328125q1.359375 0.359375 1.890625 0.59375q0.546875 0.234375 0.859375 0.6875q0.3125 0.4375 0.3125 1.09375q0 0.640625 -0.375 1.21875q-0.375 0.5625 -1.09375 0.875q-0.703125 0.3125 -1.59375 0.3125q-1.484375 0 -2.265625 -0.609375q-0.765625 -0.625 -0.984375 -1.828125zm7.328125 0l1.265625 -0.203125q0.109375 0.765625 0.59375 1.171875q0.5 0.40625 1.375 0.40625q0.890625 0 1.3125 -0.359375q0.4375 -0.359375 0.4375 -0.84375q0 -0.4375 -0.375 -0.6875q-0.265625 -0.171875 -1.3125 -0.4375q-1.421875 -0.359375 -1.96875 -0.609375q-0.546875 -0.265625 -0.828125 -0.734375q-0.28125 -0.46875 -0.28125 -1.015625q0 -0.515625 0.21875 -0.9375q0.234375 -0.4375 0.640625 -0.734375q0.296875 -0.21875 0.8125 -0.359375q0.53125 -0.15625 1.125 -0.15625q0.890625 0 1.5625 0.265625q0.671875 0.25 1.0 0.6875q0.328125 0.4375 0.4375 1.171875l-1.25 0.171875q-0.09375 -0.578125 -0.5 -0.90625q-0.40625 -0.34375 -1.15625 -0.34375q-0.890625 0 -1.28125 0.296875q-0.375 0.296875 -0.375 0.6875q0 0.25 0.15625 0.453125q0.15625 0.203125 0.5 0.34375q0.1875 0.078125 1.140625 0.328125q1.359375 0.359375 1.890625 0.59375q0.546875 0.234375 0.859375 0.6875q0.3125 0.4375 0.3125 1.09375q0 0.640625 -0.375 1.21875q-0.375 0.5625 -1.09375 0.875q-0.703125 0.3125 -1.59375 0.3125q-1.484375 0 -2.265625 -0.609375q-0.765625 -0.625 -0.984375 -1.828125zm7.84375 -6.75l0 -1.46875l1.296875 0l0 1.46875l-1.296875 0zm0 9.015625l0 -7.59375l1.296875 0l0 7.59375l-1.296875 0zm3.0217896 0.625l1.25 0.1875q0.078125 0.578125 0.4375 0.84375q0.46875 0.359375 1.3125 0.359375q0.890625 0 1.375 -0.359375q0.484375 -0.359375 0.65625 -1.0q0.109375 -0.390625 0.09375 -1.65625q-0.84375 1.0 -2.109375 1.0q-1.5625 0 -2.421875 -1.125q-0.859375 -1.140625 -0.859375 -2.71875q0 -1.09375 0.390625 -2.0q0.40625 -0.921875 1.140625 -1.421875q0.75 -0.5 1.765625 -0.5q1.34375 0 2.21875 1.078125l0 -0.90625l1.1875 0l0 6.5625q0 1.78125 -0.359375 2.515625q-0.359375 0.734375 -1.15625 1.15625q-0.78125 0.4375 -1.921875 0.4375q-1.359375 0 -2.203125 -0.609375q-0.828125 -0.609375 -0.796875 -1.84375zm1.0625 -4.5625q0 1.5 0.59375 2.1875q0.59375 0.6875 1.484375 0.6875q0.890625 0 1.484375 -0.6875q0.609375 -0.6875 0.609375 -2.140625q0 -1.390625 -0.625 -2.09375q-0.609375 -0.71875 -1.484375 -0.71875q-0.859375 0 -1.46875 0.703125q-0.59375 0.6875 -0.59375 2.0625zm7.322937 3.9375l0 -7.59375l1.15625 0l0 1.078125q0.84375 -1.25 2.421875 -1.25q0.6875 0 1.265625 0.25q0.578125 0.234375 0.859375 0.640625q0.28125 0.40625 0.40625 0.953125q0.0625 0.359375 0.0625 1.25l0 4.671875l-1.28125 0l0 -4.625q0 -0.78125 -0.15625 -1.171875q-0.15625 -0.390625 -0.546875 -0.625q-0.375 -0.234375 -0.890625 -0.234375q-0.8125 0 -1.421875 0.53125q-0.59375 0.515625 -0.59375 1.96875l0 4.15625l-1.28125 0zm13.354248 -2.453125l1.328125 0.171875q-0.3125 1.171875 -1.171875 1.8125q-0.84375 0.640625 -2.171875 0.640625q-1.671875 0 -2.65625 -1.015625q-0.96875 -1.03125 -0.96875 -2.890625q0 -1.921875 0.984375 -2.96875q1.0 -1.0625 2.578125 -1.0625q1.515625 0 2.484375 1.03125q0.96875 1.03125 0.96875 2.921875q0 0.109375 -0.015625 0.34375l-5.65625 0q0.0625 1.25 0.703125 1.921875q0.640625 0.65625 1.59375 0.65625q0.703125 0 1.203125 -0.359375q0.5 -0.375 0.796875 -1.203125zm-4.234375 -2.078125l4.25 0q-0.09375 -0.953125 -0.484375 -1.4375q-0.625 -0.75 -1.609375 -0.75q-0.875 0 -1.484375 0.59375q-0.609375 0.59375 -0.671875 1.59375zm12.104248 4.53125l0 -0.953125q-0.71875 1.125 -2.125 1.125q-0.90625 0 -1.671875 -0.5q-0.75 -0.5 -1.171875 -1.390625q-0.421875 -0.90625 -0.421875 -2.078125q0 -1.140625 0.375 -2.0625q0.390625 -0.921875 1.140625 -1.40625q0.765625 -0.5 1.703125 -0.5q0.6875 0 1.21875 0.296875q0.53125 0.28125 0.875 0.734375l0 -3.75l1.28125 0l0 10.484375l-1.203125 0zm-4.0625 -3.796875q0 1.46875 0.609375 2.1875q0.625 0.71875 1.453125 0.71875q0.84375 0 1.4375 -0.6875q0.59375 -0.6875 0.59375 -2.109375q0 -1.5625 -0.609375 -2.28125q-0.59375 -0.734375 -1.484375 -0.734375q-0.84375 0 -1.421875 0.703125q-0.578125 0.703125 -0.578125 2.203125zm11.3480835 3.796875l0 -7.59375l1.15625 0l0 1.140625q0.453125 -0.796875 0.828125 -1.046875q0.375 -0.265625 0.8125 -0.265625q0.65625 0 1.328125 0.40625l-0.4375 1.203125q-0.46875 -0.28125 -0.953125 -0.28125q-0.421875 0 -0.765625 0.25q-0.328125 0.25 -0.46875 0.703125q-0.21875 0.6875 -0.21875 1.5l0 3.984375l-1.28125 0zm10.099365 -2.453125l1.328125 0.171875q-0.3125 1.171875 -1.171875 1.8125q-0.84375 0.640625 -2.171875 0.640625q-1.671875 0 -2.65625 -1.015625q-0.96875 -1.03125 -0.96875 -2.890625q0 -1.921875 0.984375 -2.96875q1.0 -1.0625 2.578125 -1.0625q1.515625 0 2.484375 1.03125q0.96875 1.03125 0.96875 2.921875q0 0.109375 -0.015625 0.34375l-5.65625 0q0.0625 1.25 0.703125 1.921875q0.640625 0.65625 1.59375 0.65625q0.703125 0 1.203125 -0.359375q0.5 -0.375 0.796875 -1.203125zm-4.234375 -2.078125l4.25 0q-0.09375 -0.953125 -0.484375 -1.4375q-0.625 -0.75 -1.609375 -0.75q-0.875 0 -1.484375 0.59375q-0.609375 0.59375 -0.671875 1.59375zm12.135498 3.59375q-0.71875 0.609375 -1.375 0.859375q-0.65625 0.25 -1.421875 0.25q-1.25 0 -1.921875 -0.609375q-0.671875 -0.609375 -0.671875 -1.5625q0 -0.5625 0.25 -1.015625q0.25 -0.46875 0.65625 -0.75q0.421875 -0.28125 0.9375 -0.421875q0.375 -0.09375 1.140625 -0.1875q1.5625 -0.1875 2.296875 -0.453125q0.015625 -0.265625 0.015625 -0.328125q0 -0.796875 -0.375 -1.109375q-0.484375 -0.4375 -1.453125 -0.4375q-0.921875 0 -1.359375 0.328125q-0.421875 0.3125 -0.625 1.109375l-1.265625 -0.171875q0.171875 -0.796875 0.5625 -1.296875q0.390625 -0.5 1.140625 -0.765625q0.75 -0.265625 1.71875 -0.265625q0.984375 0 1.59375 0.234375q0.609375 0.21875 0.890625 0.5625q0.28125 0.34375 0.40625 0.875q0.0625 0.328125 0.0625 1.1875l0 1.71875q0 1.796875 0.078125 2.28125q0.078125 0.46875 0.328125 0.90625l-1.34375 0q-0.203125 -0.40625 -0.265625 -0.9375zm-0.109375 -2.875q-0.703125 0.28125 -2.09375 0.484375q-0.796875 0.109375 -1.125 0.265625q-0.328125 0.140625 -0.515625 0.421875q-0.171875 0.265625 -0.171875 0.59375q0 0.515625 0.390625 0.859375q0.390625 0.34375 1.140625 0.34375q0.734375 0 1.3125 -0.3125q0.59375 -0.328125 0.859375 -0.890625q0.203125 -0.4375 0.203125 -1.296875l0 -0.46875zm8.229248 3.8125l0 -0.953125q-0.71875 1.125 -2.125 1.125q-0.90625 0 -1.671875 -0.5q-0.75 -0.5 -1.171875 -1.390625q-0.421875 -0.90625 -0.421875 -2.078125q0 -1.140625 0.375 -2.0625q0.390625 -0.921875 1.140625 -1.40625q0.765625 -0.5 1.703125 -0.5q0.6875 0 1.21875 0.296875q0.53125 0.28125 0.875 0.734375l0 -3.75l1.28125 0l0 10.484375l-1.203125 0zm-4.0625 -3.796875q0 1.46875 0.609375 2.1875q0.625 0.71875 1.453125 0.71875q0.84375 0 1.4375 -0.6875q0.59375 -0.6875 0.59375 -2.109375q0 -1.5625 -0.609375 -2.28125q-0.59375 -0.734375 -1.484375 -0.734375q-0.84375 0 -1.421875 0.703125q-0.578125 0.703125 -0.578125 2.203125zm6.776123 1.53125l1.265625 -0.203125q0.109375 0.765625 0.59375 1.171875q0.5 0.40625 1.375 0.40625q0.890625 0 1.3125 -0.359375q0.4375 -0.359375 0.4375 -0.84375q0 -0.4375 -0.375 -0.6875q-0.265625 -0.171875 -1.3125 -0.4375q-1.421875 -0.359375 -1.96875 -0.609375q-0.546875 -0.265625 -0.828125 -0.734375q-0.28125 -0.46875 -0.28125 -1.015625q0 -0.515625 0.21875 -0.9375q0.234375 -0.4375 0.640625 -0.734375q0.296875 -0.21875 0.8125 -0.359375q0.53125 -0.15625 1.125 -0.15625q0.890625 0 1.5625 0.265625q0.671875 0.25 1.0 0.6875q0.328125 0.4375 0.4375 1.171875l-1.25 0.171875q-0.09375 -0.578125 -0.5 -0.90625q-0.40625 -0.34375 -1.15625 -0.34375q-0.890625 0 -1.28125 0.296875q-0.375 0.296875 -0.375 0.6875q0 0.25 0.15625 0.453125q0.15625 0.203125 0.5 0.34375q0.1875 0.078125 1.140625 0.328125q1.359375 0.359375 1.890625 0.59375q0.546875 0.234375 0.859375 0.6875q0.3125 0.4375 0.3125 1.09375q0 0.640625 -0.375 1.21875q-0.375 0.5625 -1.09375 0.875q-0.703125 0.3125 -1.59375 0.3125q-1.484375 0 -2.265625 -0.609375q-0.765625 -0.625 -0.984375 -1.828125z" fill-rule="nonzero"/><path fill="#000000" d="m743.48834 677.37976l4.015625 -10.484375l1.5 0l4.296875 10.484375l-1.578125 0l-1.234375 -3.171875l-4.375 0l-1.15625 3.171875l-1.46875 0zm3.015625 -4.3125l3.5625 0l-1.09375 -2.90625q-0.5 -1.3125 -0.75 -2.171875q-0.203125 1.015625 -0.5625 2.0l-1.15625 3.078125zm7.2286987 2.046875l1.265625 -0.203125q0.109375 0.765625 0.59375 1.171875q0.5 0.40625 1.375 0.40625q0.890625 0 1.3125 -0.359375q0.4375 -0.359375 0.4375 -0.84375q0 -0.4375 -0.375 -0.6875q-0.265625 -0.171875 -1.3125 -0.4375q-1.421875 -0.359375 -1.96875 -0.609375q-0.546875 -0.265625 -0.828125 -0.734375q-0.28125 -0.46875 -0.28125 -1.015625q0 -0.515625 0.21875 -0.9375q0.234375 -0.4375 0.640625 -0.734375q0.296875 -0.21875 0.8125 -0.359375q0.53125 -0.15625 1.125 -0.15625q0.890625 0 1.5625 0.265625q0.671875 0.25 1.0 0.6875q0.328125 0.4375 0.4375 1.171875l-1.25 0.171875q-0.09375 -0.578125 -0.5 -0.90625q-0.40625 -0.34375 -1.15625 -0.34375q-0.890625 0 -1.28125 0.296875q-0.375 0.296875 -0.375 0.6875q0 0.25 0.15625 0.453125q0.15625 0.203125 0.5 0.34375q0.1875 0.078125 1.140625 0.328125q1.359375 0.359375 1.890625 0.59375q0.546875 0.234375 0.859375 0.6875q0.3125 0.4375 0.3125 1.09375q0 0.640625 -0.375 1.21875q-0.375 0.5625 -1.09375 0.875q-0.703125 0.3125 -1.59375 0.3125q-1.484375 0 -2.265625 -0.609375q-0.765625 -0.625 -0.984375 -1.828125zm7.328125 0l1.265625 -0.203125q0.109375 0.765625 0.59375 1.171875q0.5 0.40625 1.375 0.40625q0.890625 0 1.3125 -0.359375q0.4375 -0.359375 0.4375 -0.84375q0 -0.4375 -0.375 -0.6875q-0.265625 -0.171875 -1.3125 -0.4375q-1.421875 -0.359375 -1.96875 -0.609375q-0.546875 -0.265625 -0.828125 -0.734375q-0.28125 -0.46875 -0.28125 -1.015625q0 -0.515625 0.21875 -0.9375q0.234375 -0.4375 0.640625 -0.734375q0.296875 -0.21875 0.8125 -0.359375q0.53125 -0.15625 1.125 -0.15625q0.890625 0 1.5625 0.265625q0.671875 0.25 1.0 0.6875q0.328125 0.4375 0.4375 1.171875l-1.25 0.171875q-0.09375 -0.578125 -0.5 -0.90625q-0.40625 -0.34375 -1.15625 -0.34375q-0.890625 0 -1.28125 0.296875q-0.375 0.296875 -0.375 0.6875q0 0.25 0.15625 0.453125q0.15625 0.203125 0.5 0.34375q0.1875 0.078125 1.140625 0.328125q1.359375 0.359375 1.890625 0.59375q0.546875 0.234375 0.859375 0.6875q0.3125 0.4375 0.3125 1.09375q0 0.640625 -0.375 1.21875q-0.375 0.5625 -1.09375 0.875q-0.703125 0.3125 -1.59375 0.3125q-1.484375 0 -2.265625 -0.609375q-0.765625 -0.625 -0.984375 -1.828125zm7.84375 -6.75l0 -1.46875l1.296875 0l0 1.46875l-1.296875 0zm0 9.015625l0 -7.59375l1.296875 0l0 7.59375l-1.296875 0zm3.0217896 0.625l1.25 0.1875q0.078125 0.578125 0.4375 0.84375q0.46875 0.359375 1.3125 0.359375q0.890625 0 1.375 -0.359375q0.484375 -0.359375 0.65625 -1.0q0.109375 -0.390625 0.09375 -1.65625q-0.84375 1.0 -2.109375 1.0q-1.5625 0 -2.421875 -1.125q-0.859375 -1.140625 -0.859375 -2.71875q0 -1.09375 0.390625 -2.0q0.40625 -0.921875 1.140625 -1.421875q0.75 -0.5 1.765625 -0.5q1.34375 0 2.21875 1.078125l0 -0.90625l1.1875 0l0 6.5625q0 1.78125 -0.359375 2.515625q-0.359375 0.734375 -1.15625 1.15625q-0.78125 0.4375 -1.921875 0.4375q-1.359375 0 -2.203125 -0.609375q-0.828125 -0.609375 -0.796875 -1.84375zm1.0625 -4.5625q0 1.5 0.59375 2.1875q0.59375 0.6875 1.484375 0.6875q0.890625 0 1.484375 -0.6875q0.609375 -0.6875 0.609375 -2.140625q0 -1.390625 -0.625 -2.09375q-0.609375 -0.71875 -1.484375 -0.71875q-0.859375 0 -1.46875 0.703125q-0.59375 0.6875 -0.59375 2.0625zm7.322998 3.9375l0 -7.59375l1.15625 0l0 1.078125q0.84375 -1.25 2.421875 -1.25q0.6875 0 1.265625 0.25q0.578125 0.234375 0.859375 0.640625q0.28125 0.40625 0.40625 0.953125q0.0625 0.359375 0.0625 1.25l0 4.671875l-1.28125 0l0 -4.625q0 -0.78125 -0.15625 -1.171875q-0.15625 -0.390625 -0.546875 -0.625q-0.375 -0.234375 -0.890625 -0.234375q-0.8125 0 -1.421875 0.53125q-0.59375 0.515625 -0.59375 1.96875l0 4.15625l-1.28125 0zm13.354187 -2.453125l1.328125 0.171875q-0.3125 1.171875 -1.171875 1.8125q-0.84375 0.640625 -2.171875 0.640625q-1.671875 0 -2.65625 -1.015625q-0.96875 -1.03125 -0.96875 -2.890625q0 -1.921875 0.984375 -2.96875q1.0 -1.0625 2.578125 -1.0625q1.515625 0 2.484375 1.03125q0.96875 1.03125 0.96875 2.921875q0 0.109375 -0.015625 0.34375l-5.65625 0q0.0625 1.25 0.703125 1.921875q0.640625 0.65625 1.59375 0.65625q0.703125 0 1.203125 -0.359375q0.5 -0.375 0.796875 -1.203125zm-4.234375 -2.078125l4.25 0q-0.09375 -0.953125 -0.484375 -1.4375q-0.625 -0.75 -1.609375 -0.75q-0.875 0 -1.484375 0.59375q-0.609375 0.59375 -0.671875 1.59375zm12.104248 4.53125l0 -0.953125q-0.71875 1.125 -2.125 1.125q-0.90625 0 -1.671875 -0.5q-0.75 -0.5 -1.171875 -1.390625q-0.421875 -0.90625 -0.421875 -2.078125q0 -1.140625 0.375 -2.0625q0.390625 -0.921875 1.140625 -1.40625q0.765625 -0.5 1.703125 -0.5q0.6875 0 1.21875 0.296875q0.53125 0.28125 0.875 0.734375l0 -3.75l1.28125 0l0 10.484375l-1.203125 0zm-4.0625 -3.796875q0 1.46875 0.609375 2.1875q0.625 0.71875 1.453125 0.71875q0.84375 0 1.4375 -0.6875q0.59375 -0.6875 0.59375 -2.109375q0 -1.5625 -0.609375 -2.28125q-0.59375 -0.734375 -1.484375 -0.734375q-0.84375 0 -1.421875 0.703125q-0.578125 0.703125 -0.578125 2.203125zm11.3480835 3.796875l0 -7.59375l1.15625 0l0 1.140625q0.453125 -0.796875 0.828125 -1.046875q0.375 -0.265625 0.8125 -0.265625q0.65625 0 1.328125 0.40625l-0.4375 1.203125q-0.46875 -0.28125 -0.953125 -0.28125q-0.421875 0 -0.765625 0.25q-0.328125 0.25 -0.46875 0.703125q-0.21875 0.6875 -0.21875 1.5l0 3.984375l-1.28125 0zm10.099426 -2.453125l1.328125 0.171875q-0.3125 1.171875 -1.171875 1.8125q-0.84375 0.640625 -2.171875 0.640625q-1.671875 0 -2.65625 -1.015625q-0.96875 -1.03125 -0.96875 -2.890625q0 -1.921875 0.984375 -2.96875q1.0 -1.0625 2.578125 -1.0625q1.515625 0 2.484375 1.03125q0.96875 1.03125 0.96875 2.921875q0 0.109375 -0.015625 0.34375l-5.65625 0q0.0625 1.25 0.703125 1.921875q0.640625 0.65625 1.59375 0.65625q0.703125 0 1.203125 -0.359375q0.5 -0.375 0.796875 -1.203125zm-4.234375 -2.078125l4.25 0q-0.09375 -0.953125 -0.484375 -1.4375q-0.625 -0.75 -1.609375 -0.75q-0.875 0 -1.484375 0.59375q-0.609375 0.59375 -0.671875 1.59375zm12.135437 3.59375q-0.71875 0.609375 -1.375 0.859375q-0.65625 0.25 -1.421875 0.25q-1.25 0 -1.921875 -0.609375q-0.671875 -0.609375 -0.671875 -1.5625q0 -0.5625 0.25 -1.015625q0.25 -0.46875 0.65625 -0.75q0.421875 -0.28125 0.9375 -0.421875q0.375 -0.09375 1.140625 -0.1875q1.5625 -0.1875 2.296875 -0.453125q0.015625 -0.265625 0.015625 -0.328125q0 -0.796875 -0.375 -1.109375q-0.484375 -0.4375 -1.453125 -0.4375q-0.921875 0 -1.359375 0.328125q-0.421875 0.3125 -0.625 1.109375l-1.265625 -0.171875q0.171875 -0.796875 0.5625 -1.296875q0.390625 -0.5 1.140625 -0.765625q0.75 -0.265625 1.71875 -0.265625q0.984375 0 1.59375 0.234375q0.609375 0.21875 0.890625 0.5625q0.28125 0.34375 0.40625 0.875q0.0625 0.328125 0.0625 1.1875l0 1.71875q0 1.796875 0.078125 2.28125q0.078125 0.46875 0.328125 0.90625l-1.34375 0q-0.203125 -0.40625 -0.265625 -0.9375zm-0.109375 -2.875q-0.703125 0.28125 -2.09375 0.484375q-0.796875 0.109375 -1.125 0.265625q-0.328125 0.140625 -0.515625 0.421875q-0.171875 0.265625 -0.171875 0.59375q0 0.515625 0.390625 0.859375q0.390625 0.34375 1.140625 0.34375q0.734375 0 1.3125 -0.3125q0.59375 -0.328125 0.859375 -0.890625q0.203125 -0.4375 0.203125 -1.296875l0 -0.46875zm8.229248 3.8125l0 -0.953125q-0.71875 1.125 -2.125 1.125q-0.90625 0 -1.671875 -0.5q-0.75 -0.5 -1.171875 -1.390625q-0.421875 -0.90625 -0.421875 -2.078125q0 -1.140625 0.375 -2.0625q0.390625 -0.921875 1.140625 -1.40625q0.765625 -0.5 1.703125 -0.5q0.6875 0 1.21875 0.296875q0.53125 0.28125 0.875 0.734375l0 -3.75l1.28125 0l0 10.484375l-1.203125 0zm-4.0625 -3.796875q0 1.46875 0.609375 2.1875q0.625 0.71875 1.453125 0.71875q0.84375 0 1.4375 -0.6875q0.59375 -0.6875 0.59375 -2.109375q0 -1.5625 -0.609375 -2.28125q-0.59375 -0.734375 -1.484375 -0.734375q-0.84375 0 -1.421875 0.703125q-0.578125 0.703125 -0.578125 2.203125zm6.776123 1.53125l1.265625 -0.203125q0.109375 0.765625 0.59375 1.171875q0.5 0.40625 1.375 0.40625q0.890625 0 1.3125 -0.359375q0.4375 -0.359375 0.4375 -0.84375q0 -0.4375 -0.375 -0.6875q-0.265625 -0.171875 -1.3125 -0.4375q-1.421875 -0.359375 -1.96875 -0.609375q-0.546875 -0.265625 -0.828125 -0.734375q-0.28125 -0.46875 -0.28125 -1.015625q0 -0.515625 0.21875 -0.9375q0.234375 -0.4375 0.640625 -0.734375q0.296875 -0.21875 0.8125 -0.359375q0.53125 -0.15625 1.125 -0.15625q0.890625 0 1.5625 0.265625q0.671875 0.25 1.0 0.6875q0.328125 0.4375 0.4375 1.171875l-1.25 0.171875q-0.09375 -0.578125 -0.5 -0.90625q-0.40625 -0.34375 -1.15625 -0.34375q-0.890625 0 -1.28125 0.296875q-0.375 0.296875 -0.375 0.6875q0 0.25 0.15625 0.453125q0.15625 0.203125 0.5 0.34375q0.1875 0.078125 1.140625 0.328125q1.359375 0.359375 1.890625 0.59375q0.546875 0.234375 0.859375 0.6875q0.3125 0.4375 0.3125 1.09375q0 0.640625 -0.375 1.21875q-0.375 0.5625 -1.09375 0.875q-0.703125 0.3125 -1.59375 0.3125q-1.484375 0 -2.265625 -0.609375q-0.765625 -0.625 -0.984375 -1.828125z" fill-rule="nonzero"/></g></svg>